<svg width="1042" height="696" viewBox="0 0 1042 696" fill="none" xmlns="http://www.w3.org/2000/svg">
<g clip-path="url(#clip0_2_1141)">
<path d="M1008 603.247H-22V603.758H1008V603.247Z" fill="#244159"/>
<path d="M904.794 636.137H836.566V636.648H904.794V636.137Z" fill="#244159"/>
<path d="M660.313 641.697H642.412V642.208H660.313V641.697Z" fill="#244159"/>
<path d="M834.507 617.168H794.975V617.679H834.507V617.168Z" fill="#244159"/>
<path d="M175.039 620.602H86.0674V621.113H175.039V620.602Z" fill="#244159"/>
<path d="M206.433 620.602H193.394V621.113H206.433V620.602Z" fill="#244159"/>
<path d="M441.809 629.228H248.829V629.739H441.809V629.228Z" fill="#244159"/>
<path d="M630.073 398.937H877.582C877.581 403.276 875.892 407.447 872.868 410.581C869.844 413.715 865.717 415.57 861.349 415.76C834.754 416.966 793.822 421.136 780.865 435.731C756.66 462.959 759.008 558.583 787.992 580.721C797.056 587.671 823.548 601.448 823.548 601.448H684.107C684.107 601.448 708.827 587.385 717.458 580.721C746.298 558.399 747.101 462.836 722.793 435.731C710.33 421.831 671.973 417.334 646.244 415.923C641.87 415.683 637.755 413.787 634.747 410.628C631.739 407.468 630.066 403.284 630.073 398.937Z" fill="#244159"/>
<path d="M846.908 416.659C821.776 418.703 791.658 423.589 780.864 435.731C777.339 439.925 774.554 444.68 772.624 449.794H731.115C729.159 444.692 726.376 439.942 722.875 435.731C712.039 423.65 681.675 418.683 656.955 416.659H846.908Z" fill="#244159"/>
<path d="M735.503 399.059L738.882 360.895H690.08L686.723 399.059H735.503Z" fill="#244159"/>
<path d="M735.504 399.059L738.882 360.895H741.499L738.141 399.059H735.504Z" fill="#244159"/>
<path d="M730.868 395.175L733.546 364.779H694.715L692.037 395.175H730.868Z" fill="#244159"/>
<path d="M727.902 392.661L730.126 367.294H697.702L695.457 392.661H727.902Z" fill="#FAFAFA"/>
<path d="M751.324 398.937H800.331L794.893 337.265H745.885L751.324 398.937Z" fill="#244159"/>
<path d="M751.324 398.937H748.996L743.558 337.265H745.885L751.324 398.937Z" fill="#244159"/>
<path d="M755.773 392.661H794.79L790.464 343.561H751.447L755.773 392.661Z" fill="#244159"/>
<path d="M758.617 388.614H791.226L787.601 347.609H755.012L758.617 388.614Z" fill="#FAFAFA"/>
<path d="M775.097 366.047C774.57 366.572 773.944 366.989 773.255 367.273C772.566 367.558 771.826 367.704 771.08 367.704C770.333 367.704 769.594 367.558 768.905 367.273C768.215 366.989 767.589 366.572 767.063 366.047C766.005 364.99 765.411 363.561 765.411 362.071C765.411 360.581 766.005 359.152 767.063 358.095C768.131 357.044 769.575 356.454 771.08 356.454C772.584 356.454 774.028 357.044 775.097 358.095C776.155 359.152 776.748 360.581 776.748 362.071C776.748 363.561 776.155 364.99 775.097 366.047Z" fill="#244159"/>
<path d="M772.687 372.956C773.07 372.569 773.527 372.263 774.031 372.053C774.535 371.844 775.076 371.736 775.622 371.736C776.168 371.736 776.709 371.844 777.213 372.053C777.717 372.263 778.174 372.569 778.558 372.956C779.153 373.525 779.562 374.259 779.732 375.063C779.901 375.866 779.823 376.701 779.507 377.46C779.192 378.218 778.653 378.865 777.962 379.316C777.271 379.767 776.459 380.001 775.632 379.988C774.804 380.005 773.989 379.774 773.295 379.325C772.6 378.876 772.059 378.229 771.74 377.469C771.422 376.71 771.342 375.873 771.511 375.068C771.68 374.262 772.09 373.526 772.687 372.956Z" fill="#244159"/>
<path d="M146.344 328.639H377.455L377.455 75.0038L146.344 75.0038L146.344 328.639Z" fill="#0D2438"/>
<path d="M138.969 328.639L378.67 328.639L378.67 75.0038L138.969 75.0038L138.969 328.639Z" fill="#0D2438"/>
<path d="M149.124 316.967H368.926L368.926 83.0782L149.124 83.0782L149.124 316.967Z" fill="#244159"/>
<path d="M149.103 316.967H155.469L155.469 83.0782H149.103L149.103 316.967Z" fill="#0D2438"/>
<path d="M154.789 251.269V257.585H369.482V251.269H154.789Z" fill="#0D2438"/>
<path d="M149.104 251.269L372.325 251.269V240.68L149.104 240.68V251.269Z" fill="#0D2438"/>
<path d="M757.483 118.421C757.483 118.421 759.543 104.93 749.635 96.2832C739.726 87.6365 740.591 82.4853 743.455 81.8107C746.318 81.1362 748.893 89.8033 753.26 92.1745C753.26 92.1745 753.404 79.9097 748.975 75.3104C744.546 70.7111 742.219 59.08 746.442 58.9574C750.665 58.8348 751.077 65.9074 751.962 70.9769C752.848 76.0463 757.524 83.2416 757.524 83.2416C757.524 83.2416 758.431 72.2033 761.294 67.6654C764.158 63.1274 756.536 52.7433 759.481 48.2053C762.427 43.6673 767.721 52.2935 767.206 62.044C766.691 71.7945 760.244 82.1582 761.768 92.3175C761.768 92.3175 764.652 85.1835 767.227 84.5294C769.802 83.8753 772.439 79.1738 774.169 77.4159C775.9 75.6579 778.104 81.729 774.169 87.3503C770.235 92.9717 760.244 108.016 761.809 120.159L757.483 118.421Z" fill="#244159"/>
<path d="M751.551 112.289L748.296 132.505C748.049 133.981 748.131 135.492 748.536 136.933C748.942 138.373 749.661 139.708 750.643 140.842C751.626 141.977 752.847 142.884 754.221 143.499C755.595 144.114 757.089 144.422 758.596 144.402H762.057C763.564 144.422 765.057 144.114 766.431 143.499C767.805 142.884 769.027 141.977 770.009 140.842C770.991 139.708 771.711 138.373 772.116 136.933C772.522 135.492 772.604 133.981 772.357 132.505L769.04 112.289H751.551Z" fill="#244159"/>
<path d="M800.64 136.941H571.156V148.633H800.64V136.941Z" fill="#244159"/>
<path d="M591.838 93.8098H581.724V136.941H591.838V93.8098Z" fill="#244159"/>
<path d="M640.723 93.8098H630.608V136.941H640.723V93.8098Z" fill="#244159"/>
<path d="M696.229 92.7139L686.262 94.4188L693.645 136.923L703.613 135.218L696.229 92.7139Z" fill="#244159"/>
<path d="M604.364 99.4926H594.249V136.941H604.364V99.4926Z" fill="#244159"/>
<path d="M627.601 99.4926H617.486V136.941H627.601V99.4926Z" fill="#244159"/>
<path d="M686.269 99.4926H676.155V136.941H686.269V99.4926Z" fill="#244159"/>
<path d="M653.999 98.168L644.125 100.345L652.313 136.902L662.187 134.724L653.999 98.168Z" fill="#244159"/>
<path d="M613.098 91.6635H608.051V136.941H613.098V91.6635Z" fill="#244159"/>
<path d="M673.229 91.6635H668.182V136.941H673.229V91.6635Z" fill="#244159"/>
<path d="M571.177 235.979L800.661 235.979V224.286L571.177 224.286V235.979Z" fill="#244159"/>
<path d="M779.979 224.286H790.094V181.155H779.979V224.286Z" fill="#244159"/>
<path d="M731.095 224.286H741.21V181.155H731.095V224.286Z" fill="#244159"/>
<path d="M668.23 222.541L678.198 224.246L685.581 181.742L675.614 180.037L668.23 222.541Z" fill="#244159"/>
<path d="M767.454 224.286H777.569V186.838H767.454V224.286Z" fill="#244159"/>
<path d="M744.217 224.286H754.331V186.838H744.217V224.286Z" fill="#244159"/>
<path d="M685.548 224.286H695.663V186.838H685.548V224.286Z" fill="#244159"/>
<path d="M709.654 222.063L719.527 224.241L727.715 187.684L717.841 185.507L709.654 222.063Z" fill="#244159"/>
<path d="M758.72 224.286H763.767V179.009H758.72V224.286Z" fill="#244159"/>
<path d="M698.588 224.286H703.635V179.009H698.588V224.286Z" fill="#244159"/>
<path d="M593.198 223.898H642.453V190.15H593.198V223.898Z" fill="#244159"/>
<path d="M493.001 695.56C713.591 695.56 892.414 685.2 892.414 672.42C892.414 659.641 713.591 649.281 493.001 649.281C272.411 649.281 93.5874 659.641 93.5874 672.42C93.5874 685.2 272.411 695.56 493.001 695.56Z" fill="#244159"/>
<path d="M662.888 621.297C662.888 621.297 652.588 599.22 664.33 577.43C676.072 555.64 679.368 550.529 671.952 546.073C664.536 541.617 661.096 563.591 661.096 563.591C657.406 553.706 657.023 542.904 660.004 532.786C665.174 517.026 668.429 491.372 661.363 488.613C654.298 485.853 660.024 520.624 653.886 532.48C650.761 524.163 648.746 515.477 647.891 506.642C647.046 493.989 648.365 473.772 642.782 468.601C637.2 463.429 633.636 466.986 639.115 494.929C642.409 511.611 644.229 528.546 644.554 545.542C644.554 545.542 632.462 508.911 624.325 507.848C616.188 506.785 616.208 518.641 623.171 528.923C630.134 539.205 643.544 557.643 645.728 567.128C645.728 567.128 632.441 539.573 620.493 548.015C608.545 556.457 630.896 573.117 640.866 579.127C650.837 585.136 657.758 622.85 657.758 622.85L662.888 621.297Z" fill="#407BFF"/>
<path opacity="0.2" d="M662.888 621.297C662.888 621.297 652.588 599.22 664.33 577.43C676.072 555.64 679.368 550.529 671.952 546.073C664.536 541.617 661.096 563.591 661.096 563.591C657.406 553.706 657.023 542.904 660.004 532.786C665.174 517.026 668.429 491.372 661.363 488.613C654.298 485.853 660.024 520.624 653.886 532.48C650.761 524.163 648.746 515.477 647.891 506.642C647.046 493.989 648.365 473.772 642.782 468.601C637.2 463.429 633.636 466.986 639.115 494.929C642.409 511.611 644.229 528.546 644.554 545.542C644.554 545.542 632.462 508.911 624.325 507.848C616.188 506.785 616.208 518.641 623.171 528.923C630.134 539.205 643.544 557.643 645.728 567.128C645.728 567.128 632.441 539.573 620.493 548.015C608.545 556.457 630.896 573.117 640.866 579.127C650.837 585.136 657.758 622.85 657.758 622.85L662.888 621.297Z" fill="black"/>
<path d="M654.834 630.352C654.834 630.352 664.763 608.112 652.774 586.526C640.785 564.94 637.406 559.83 644.781 555.272C652.156 550.713 655.823 572.524 655.823 572.524C659.395 562.593 659.648 551.784 656.544 541.699C651.188 526.041 647.624 500.428 654.669 497.566C661.714 494.704 656.399 529.556 662.662 541.31C665.693 532.948 667.605 524.227 668.347 515.37C669.048 502.717 667.482 482.521 673.003 477.268C678.524 472.014 682.129 475.53 676.979 503.535C673.882 520.261 672.269 537.224 672.158 554.229C672.158 554.229 683.818 517.435 691.934 516.249C700.051 515.064 700.174 526.92 693.335 537.304C686.496 547.688 673.333 566.33 671.231 575.835C671.231 575.835 684.189 548.076 696.24 556.355C708.291 564.634 686.146 581.6 676.258 587.773C666.37 593.946 659.901 631.742 659.901 631.742L654.834 630.352Z" fill="#407BFF"/>
<path d="M700.648 614.51H618.577L625.231 672.788H694.014L700.648 614.51Z" fill="#263238"/>
<path opacity="0.2" d="M861.844 34.9798H428.09C425.269 34.9798 422.981 37.2495 422.981 40.0492V422.342C422.981 425.142 425.269 427.411 428.09 427.411H861.844C864.665 427.411 866.953 425.142 866.953 422.342V40.0492C866.953 37.2495 864.665 34.9798 861.844 34.9798Z" fill="black"/>
<path d="M845.055 27.7231H411.301C408.48 27.7231 406.192 29.9928 406.192 32.7926V415.085C406.192 417.885 408.48 420.155 411.301 420.155H845.055C847.876 420.155 850.164 417.885 850.164 415.085V32.7926C850.164 29.9928 847.876 27.7231 845.055 27.7231Z" fill="#407BFF"/>
<path opacity="0.6" d="M406.192 62.78V415.106C406.086 416.315 406.456 417.518 407.224 418.463C407.992 419.408 409.099 420.021 410.312 420.175H845.92C847.155 420.051 848.293 419.45 849.086 418.502C849.88 417.553 850.267 416.334 850.163 415.106V62.78H406.192Z" fill="#244159"/>
<path d="M844.89 83.4461H411.445V394.705H844.89V83.4461Z" fill="#244159"/>
<path opacity="0.6" d="M835.661 51.9665C839.256 51.9665 842.171 48.4796 842.171 44.1783C842.171 39.8771 839.256 36.3902 835.661 36.3902C832.066 36.3902 829.151 39.8771 829.151 44.1783C829.151 48.4796 832.066 51.9665 835.661 51.9665Z" fill="#244159"/>
<path opacity="0.6" d="M814.34 51.9665C817.935 51.9665 820.849 48.4796 820.849 44.1783C820.849 39.8771 817.935 36.3902 814.34 36.3902C810.745 36.3902 807.83 39.8771 807.83 44.1783C807.83 48.4796 810.745 51.9665 814.34 51.9665Z" fill="#244159"/>
<path opacity="0.6" d="M799.507 44.1783C799.507 48.471 796.603 51.946 792.998 51.946C789.393 51.946 786.509 48.471 786.509 44.1783C786.509 39.8857 789.413 36.3902 792.998 36.3902C796.582 36.3902 799.507 39.8652 799.507 44.1783Z" fill="#244159"/>
<path d="M503.794 119.791V200.063L482.988 224.961H436.906V119.791H503.794Z" fill="#407BFF"/>
<path opacity="0.7" d="M503.794 119.791V200.063L482.988 224.961H436.906V119.791H503.794Z" fill="#244159"/>
<path opacity="0.3" d="M503.795 200.063L482.989 224.961V200.063H503.795Z" fill="#407BFF"/>
<path opacity="0.3" d="M493.433 134.958H447.289V137.963H493.433V134.958Z" fill="#407BFF"/>
<path opacity="0.3" d="M493.433 146.364H447.289V149.369H493.433V146.364Z" fill="#407BFF"/>
<path opacity="0.3" d="M493.433 157.791H447.289V160.816H493.433V157.791Z" fill="#407BFF"/>
<path opacity="0.3" d="M493.433 169.218H447.289V172.223H493.433V169.218Z" fill="#407BFF"/>
<path opacity="0.3" d="M481.505 180.644H447.289V183.67H481.505V180.644Z" fill="#407BFF"/>
<path d="M609.884 119.791V200.063L589.078 224.961H542.996V119.791H609.884Z" fill="#407BFF"/>
<path opacity="0.7" d="M609.884 119.791V200.063L589.078 224.961H542.996V119.791H609.884Z" fill="#244159"/>
<path opacity="0.3" d="M609.885 200.063L589.079 224.961V200.063H609.885Z" fill="#407BFF"/>
<path opacity="0.3" d="M599.503 134.958H553.359V137.963H599.503V134.958Z" fill="#407BFF"/>
<path opacity="0.3" d="M599.503 146.364H553.359V149.369H599.503V146.364Z" fill="#407BFF"/>
<path opacity="0.3" d="M599.503 157.791H553.359V160.816H599.503V157.791Z" fill="#407BFF"/>
<path opacity="0.3" d="M599.503 169.218H553.359V172.223H599.503V169.218Z" fill="#407BFF"/>
<path opacity="0.3" d="M587.576 180.644H553.359V183.67H587.576V180.644Z" fill="#407BFF"/>
<path d="M715.975 119.791V200.063L695.169 224.961H649.086V119.791H715.975Z" fill="#407BFF"/>
<path opacity="0.7" d="M715.975 119.791V200.063L695.169 224.961H649.086V119.791H715.975Z" fill="#244159"/>
<path opacity="0.3" d="M715.974 200.063L695.168 224.961V200.063H715.974Z" fill="#407BFF"/>
<path opacity="0.3" d="M705.593 134.958H659.449V137.963H705.593V134.958Z" fill="#407BFF"/>
<path opacity="0.3" d="M705.593 146.364H659.449V149.369H705.593V146.364Z" fill="#407BFF"/>
<path opacity="0.3" d="M705.593 157.791H659.449V160.816H705.593V157.791Z" fill="#407BFF"/>
<path opacity="0.3" d="M705.593 169.218H659.449V172.223H705.593V169.218Z" fill="#407BFF"/>
<path opacity="0.3" d="M693.665 180.644H659.449V183.67H693.665V180.644Z" fill="#407BFF"/>
<path d="M822.064 119.791V200.063L801.238 224.961H755.176V119.791H822.064Z" fill="#407BFF"/>
<path opacity="0.7" d="M822.064 119.791V200.063L801.238 224.961H755.176V119.791H822.064Z" fill="#244159"/>
<path opacity="0.3" d="M822.065 200.063L801.239 224.961V200.063H822.065Z" fill="#407BFF"/>
<path opacity="0.3" d="M811.683 134.958H765.539V137.963H811.683V134.958Z" fill="#407BFF"/>
<path opacity="0.3" d="M811.683 146.364H765.539V149.369H811.683V146.364Z" fill="#407BFF"/>
<path opacity="0.3" d="M811.683 157.791H765.539V160.816H811.683V157.791Z" fill="#407BFF"/>
<path opacity="0.3" d="M811.683 169.218H765.539V172.223H811.683V169.218Z" fill="#407BFF"/>
<path opacity="0.3" d="M799.756 180.644H765.539V183.67H799.756V180.644Z" fill="#407BFF"/>
<path d="M503.794 258.791V339.064L482.988 363.962H436.906V258.791H503.794Z" fill="#407BFF"/>
<path opacity="0.7" d="M503.794 258.791V339.064L482.988 363.962H436.906V258.791H503.794Z" fill="#244159"/>
<path opacity="0.3" d="M503.795 339.064L482.989 363.962V339.064H503.795Z" fill="#407BFF"/>
<path opacity="0.3" d="M493.433 273.959H447.289V276.964H493.433V273.959Z" fill="#407BFF"/>
<path opacity="0.3" d="M493.433 285.365H447.289V288.37H493.433V285.365Z" fill="#407BFF"/>
<path opacity="0.3" d="M493.433 296.792H447.289V299.817H493.433V296.792Z" fill="#407BFF"/>
<path opacity="0.3" d="M493.433 308.218H447.289V311.244H493.433V308.218Z" fill="#407BFF"/>
<path opacity="0.3" d="M481.505 319.645H447.289V322.65H481.505V319.645Z" fill="#407BFF"/>
<path d="M609.884 258.791V339.064L589.078 363.962H542.996V258.791H609.884Z" fill="#407BFF"/>
<path opacity="0.7" d="M609.884 258.791V339.064L589.078 363.962H542.996V258.791H609.884Z" fill="#244159"/>
<path opacity="0.3" d="M609.885 339.064L589.079 363.962V339.064H609.885Z" fill="#407BFF"/>
<path opacity="0.3" d="M599.503 273.959H553.359V276.964H599.503V273.959Z" fill="#407BFF"/>
<path opacity="0.3" d="M599.503 285.365H553.359V288.37H599.503V285.365Z" fill="#407BFF"/>
<path opacity="0.3" d="M599.503 296.792H553.359V299.817H599.503V296.792Z" fill="#407BFF"/>
<path opacity="0.3" d="M599.503 308.218H553.359V311.244H599.503V308.218Z" fill="#407BFF"/>
<path opacity="0.3" d="M587.576 319.645H553.359V322.65H587.576V319.645Z" fill="#407BFF"/>
<path d="M715.975 258.791V339.064L695.169 363.962H649.086V258.791H715.975Z" fill="#407BFF"/>
<path opacity="0.7" d="M715.975 258.791V339.064L695.169 363.962H649.086V258.791H715.975Z" fill="#244159"/>
<path opacity="0.3" d="M715.974 339.064L695.168 363.962V339.064H715.974Z" fill="#407BFF"/>
<path opacity="0.3" d="M705.593 273.959H659.449V276.964H705.593V273.959Z" fill="#407BFF"/>
<path opacity="0.3" d="M705.593 285.365H659.449V288.37H705.593V285.365Z" fill="#407BFF"/>
<path opacity="0.3" d="M705.593 296.792H659.449V299.817H705.593V296.792Z" fill="#407BFF"/>
<path opacity="0.3" d="M705.593 308.218H659.449V311.244H705.593V308.218Z" fill="#407BFF"/>
<path opacity="0.3" d="M693.665 319.645H659.449V322.65H693.665V319.645Z" fill="#407BFF"/>
<path d="M822.064 258.791V339.064L801.238 363.962H755.176V258.791H822.064Z" fill="#407BFF"/>
<path opacity="0.7" d="M822.064 258.791V339.064L801.238 363.962H755.176V258.791H822.064Z" fill="#244159"/>
<path opacity="0.3" d="M822.065 339.064L801.239 363.962V339.064H822.065Z" fill="#407BFF"/>
<path opacity="0.3" d="M811.683 273.959H765.539V276.964H811.683V273.959Z" fill="#407BFF"/>
<path opacity="0.3" d="M811.683 285.365H765.539V288.37H811.683V285.365Z" fill="#407BFF"/>
<path opacity="0.3" d="M811.683 296.792H765.539V299.817H811.683V296.792Z" fill="#407BFF"/>
<path opacity="0.3" d="M811.683 308.218H765.539V311.244H811.683V308.218Z" fill="#407BFF"/>
<path opacity="0.3" d="M799.756 319.645H765.539V322.65H799.756V319.645Z" fill="#407BFF"/>
<path opacity="0.1" d="M657.718 192.275H550.948C545.999 192.275 541.987 196.256 541.987 201.167V280.561C541.987 285.472 545.999 289.453 550.948 289.453H657.718C662.667 289.453 666.679 285.472 666.679 280.561V201.167C666.679 196.256 662.667 192.275 657.718 192.275Z" fill="black"/>
<g opacity="0.1">
<path d="M650.075 187.758H637.715V174.491C637.715 166.11 634.36 158.072 628.387 152.145C622.414 146.219 614.314 142.889 605.867 142.889C597.421 142.889 589.32 146.219 583.348 152.145C577.375 158.072 574.02 166.11 574.02 174.491V187.758H561.66V174.491C561.66 162.857 566.317 151.7 574.608 143.473C582.898 135.246 594.143 130.625 605.867 130.625C617.592 130.625 628.836 135.246 637.127 143.473C645.417 151.7 650.075 162.857 650.075 174.491V187.758Z" fill="black"/>
</g>
<path d="M606.218 188.187H499.448C494.499 188.187 490.487 192.168 490.487 197.079V276.473C490.487 281.384 494.499 285.365 499.448 285.365H606.218C611.167 285.365 615.179 281.384 615.179 276.473V197.079C615.179 192.168 611.167 188.187 606.218 188.187Z" fill="#263238"/>
<path opacity="0.2" d="M583.661 188.187H499.448C494.499 188.187 490.487 192.168 490.487 197.079V276.473C490.487 281.384 494.499 285.365 499.448 285.365H583.661C588.61 285.365 592.622 281.384 592.622 276.473V197.079C592.622 192.168 588.61 188.187 583.661 188.187Z" fill="white"/>
<path d="M547.817 224.654C547.817 217.95 543.697 212.512 538.629 212.512C533.562 212.512 529.462 217.95 529.462 224.654C529.34 226.864 529.807 229.067 530.816 231.041C531.825 233.015 533.341 234.69 535.21 235.897L533.5 261.244H543.8L542.111 235.897C543.969 234.682 545.474 233.004 546.476 231.031C547.477 229.059 547.939 226.86 547.817 224.654Z" fill="#263238"/>
<path d="M598.575 183.67H586.215V170.403C586.215 162.022 582.86 153.984 576.887 148.057C570.914 142.131 562.814 138.801 554.367 138.801C545.921 138.801 537.82 142.131 531.848 148.057C525.875 153.984 522.52 162.022 522.52 170.403V183.67H510.16V170.403C510.16 158.769 514.817 147.611 523.108 139.385C531.398 131.158 542.643 126.536 554.367 126.536C566.092 126.536 577.336 131.158 585.627 139.385C593.917 147.611 598.575 158.769 598.575 170.403V183.67Z" fill="#263238"/>
<g opacity="0.4">
<path d="M598.575 183.67H586.215V170.403C586.215 162.022 582.86 153.984 576.887 148.057C570.914 142.131 562.814 138.801 554.367 138.801C545.921 138.801 537.82 142.131 531.848 148.057C525.875 153.984 522.52 162.022 522.52 170.403V183.67H510.16V170.403C510.16 158.769 514.817 147.611 523.108 139.385C531.398 131.158 542.643 126.536 554.367 126.536C566.092 126.536 577.336 131.158 585.627 139.385C593.917 147.611 598.575 158.769 598.575 170.403V183.67Z" fill="white"/>
</g>
<path opacity="0.2" d="M598.576 170.403V183.67H590.191V168.891C590.191 163.628 589.146 158.416 587.116 153.554C585.086 148.691 582.11 144.274 578.358 140.553C574.607 136.833 570.153 133.882 565.252 131.87C560.351 129.857 555.099 128.823 549.795 128.826C541.689 128.8 533.774 131.264 527.135 135.878C533.655 130.804 541.483 127.653 549.723 126.784C557.962 125.916 566.282 127.365 573.732 130.966C581.181 134.567 587.459 140.175 591.849 147.148C596.238 154.122 598.562 162.181 598.555 170.403H598.576Z" fill="white"/>
<path d="M423.908 405.437H373.974V403.536H385.242C386 403.529 386.731 403.26 387.31 402.774C387.89 402.289 388.28 401.619 388.414 400.879L393.461 371.075L394.45 365.209H411.548L426.854 401.022C427.062 401.504 427.146 402.031 427.099 402.554C427.051 403.077 426.873 403.58 426.581 404.018C426.289 404.456 425.892 404.814 425.425 405.062C424.958 405.31 424.437 405.439 423.908 405.437Z" fill="#407BFF"/>
<path opacity="0.4" d="M423.908 405.437H373.974V403.536H385.242C386 403.529 386.731 403.26 387.31 402.774C387.89 402.289 388.28 401.619 388.414 400.879L393.461 371.075L394.45 365.209H411.548L426.854 401.022C427.062 401.504 427.146 402.031 427.099 402.554C427.051 403.077 426.873 403.58 426.581 404.018C426.289 404.456 425.892 404.814 425.425 405.062C424.958 405.31 424.437 405.439 423.908 405.437Z" fill="white"/>
<path opacity="0.2" d="M423.969 403.536H385.241C385.999 403.529 386.731 403.259 387.31 402.774C387.889 402.289 388.279 401.619 388.414 400.879L393.461 371.075H411.383L425.02 401.962C425.095 402.134 425.127 402.322 425.11 402.509C425.094 402.696 425.03 402.876 424.926 403.033C424.822 403.189 424.679 403.317 424.512 403.405C424.345 403.493 424.158 403.538 423.969 403.536Z" fill="black"/>
<path d="M450.749 376.186H350.86C350.633 376.195 350.407 376.153 350.199 376.06C349.992 375.968 349.809 375.829 349.665 375.655C349.521 375.48 349.42 375.275 349.37 375.054C349.32 374.834 349.322 374.606 349.377 374.387L363.591 299.899C363.695 299.42 363.951 298.986 364.322 298.662C364.693 298.339 365.159 298.141 365.651 298.1H465.52C465.746 298.089 465.973 298.131 466.18 298.224C466.387 298.316 466.569 298.455 466.711 298.631C466.854 298.806 466.953 299.012 467 299.233C467.047 299.453 467.041 299.681 466.982 299.899L452.809 374.366C452.709 374.849 452.455 375.287 452.084 375.615C451.712 375.943 451.244 376.143 450.749 376.186Z" fill="#407BFF"/>
<path opacity="0.4" d="M450.749 376.186H350.86C350.633 376.195 350.407 376.153 350.199 376.06C349.992 375.968 349.809 375.829 349.665 375.655C349.521 375.48 349.42 375.275 349.37 375.054C349.32 374.834 349.322 374.606 349.377 374.387L363.591 299.899C363.695 299.42 363.951 298.986 364.322 298.662C364.693 298.339 365.159 298.141 365.651 298.1H465.52C465.746 298.089 465.973 298.131 466.18 298.224C466.387 298.316 466.569 298.455 466.711 298.631C466.854 298.806 466.953 299.012 467 299.233C467.047 299.453 467.041 299.681 466.982 299.899L452.809 374.366C452.709 374.849 452.455 375.287 452.084 375.615C451.712 375.943 451.244 376.143 450.749 376.186Z" fill="white"/>
<path d="M448.69 376.186H348.801C348.573 376.195 348.347 376.153 348.14 376.06C347.932 375.968 347.749 375.829 347.605 375.655C347.461 375.48 347.36 375.275 347.31 375.054C347.26 374.834 347.263 374.606 347.317 374.387L361.531 299.899C361.635 299.42 361.892 298.986 362.263 298.662C362.633 298.339 363.099 298.141 363.591 298.1H463.46C463.687 298.089 463.913 298.131 464.12 298.224C464.327 298.316 464.509 298.455 464.652 298.631C464.794 298.806 464.893 299.012 464.94 299.233C464.987 299.453 464.981 299.681 464.923 299.899L450.75 374.366C450.65 374.849 450.395 375.287 450.024 375.615C449.653 375.943 449.185 376.143 448.69 376.186Z" fill="#263238"/>
<path d="M447.371 371.607H351.87L365.012 302.699H460.493L447.371 371.607Z" fill="#407BFF"/>
<path d="M280.924 405.437V403.107L319.363 395.4H394.574C395.913 395.4 397.196 395.928 398.143 396.867C399.089 397.806 399.621 399.08 399.621 400.409C399.621 401.739 399.09 403.015 398.144 403.957C397.198 404.899 395.914 405.432 394.574 405.437H280.924Z" fill="#407BFF"/>
<path opacity="0.4" d="M399.621 400.429C399.624 401.753 399.098 403.025 398.158 403.965C397.205 404.904 395.917 405.433 394.574 405.437H280.924V403.127L319.384 395.4H394.574C395.239 395.4 395.897 395.531 396.51 395.784C397.124 396.036 397.681 396.407 398.15 396.874C398.619 397.342 398.99 397.896 399.243 398.506C399.495 399.116 399.624 399.77 399.621 400.429Z" fill="white"/>
<path opacity="0.4" d="M399.621 400.429C399.624 401.753 399.098 403.025 398.158 403.965C397.205 404.904 395.917 405.433 394.574 405.437H348.904V403.127L387.364 395.4H394.574C395.239 395.4 395.897 395.531 396.51 395.784C397.124 396.036 397.681 396.407 398.15 396.874C398.619 397.342 398.99 397.896 399.243 398.506C399.495 399.116 399.624 399.77 399.621 400.429Z" fill="white"/>
<path d="M427.102 672.788H437.402L455.88 417.395H442.222L427.102 672.788Z" fill="#263238"/>
<path opacity="0.1" d="M427.102 672.788H437.402L454.973 430.069L455.88 417.804H442.222L441.501 430.069L427.102 672.788Z" fill="white"/>
<path opacity="0.2" d="M441.5 429.455H454.972L455.879 417.804H442.221L441.5 429.455Z" fill="black"/>
<path d="M351.602 672.788H361.881L363.57 417.395H349.913L351.602 672.788Z" fill="#263238"/>
<path opacity="0.1" d="M349.913 417.804L350.18 459.014L351.581 672.788H361.881L363.282 459.014L363.55 417.804H349.913Z" fill="white"/>
<path opacity="0.2" d="M349.913 417.804L350.18 459.463H363.282L363.55 417.804H349.913Z" fill="black"/>
<path d="M242.36 672.788H252.639L271.138 417.395H257.48L242.36 672.788Z" fill="#263238"/>
<path opacity="0.1" d="M242.34 672.788H252.64L270.232 430.069L271.139 417.804H257.481L256.739 430.069L242.34 672.788Z" fill="white"/>
<path opacity="0.2" d="M256.739 429.455H270.232L271.138 417.804H257.48L256.739 429.455Z" fill="black"/>
<path d="M544.809 672.788H555.089L539.968 417.395H526.331L544.809 672.788Z" fill="#263238"/>
<path opacity="0.1" d="M526.331 417.804L527.237 430.069L544.809 672.788H555.089L540.71 430.069L539.968 417.804H526.331Z" fill="white"/>
<path opacity="0.2" d="M539.968 417.804H526.331L527.237 429.455H540.71L539.968 417.804Z" fill="black"/>
<path d="M546.333 423.773L251.114 423.773C250.53 423.773 249.952 423.659 249.412 423.437C248.872 423.215 248.381 422.89 247.968 422.48C247.555 422.07 247.227 421.583 247.004 421.047C246.78 420.512 246.665 419.937 246.665 419.358V410.977L550.783 410.977V419.358C550.783 419.937 550.668 420.512 550.444 421.047C550.22 421.583 549.893 422.07 549.479 422.48C549.066 422.89 548.576 423.215 548.036 423.437C547.496 423.659 546.917 423.773 546.333 423.773Z" fill="#407BFF"/>
<path opacity="0.4" d="M546.333 423.773L251.114 423.773C250.53 423.773 249.952 423.659 249.412 423.437C248.872 423.215 248.381 422.89 247.968 422.48C247.555 422.07 247.227 421.583 247.004 421.047C246.78 420.512 246.665 419.937 246.665 419.358V410.977L550.783 410.977V419.358C550.783 419.937 550.668 420.512 550.444 421.047C550.22 421.583 549.893 422.07 549.479 422.48C549.066 422.89 548.576 423.215 548.036 423.437C547.496 423.659 546.917 423.773 546.333 423.773Z" fill="white"/>
<path opacity="0.2" d="M246.644 417.375L550.783 417.375V410.977L246.644 410.977V417.375Z" fill="black"/>
<path d="M240.279 412.653H557.169C558.131 412.653 559.053 412.274 559.733 411.599C560.413 410.924 560.795 410.009 560.795 409.055C560.795 408.101 560.413 407.186 559.733 406.511C559.053 405.837 558.131 405.458 557.169 405.458H240.279C239.318 405.458 238.396 405.837 237.716 406.511C237.036 407.186 236.654 408.101 236.654 409.055C236.654 410.009 237.036 410.924 237.716 411.599C238.396 412.274 239.318 412.653 240.279 412.653Z" fill="#407BFF"/>
<path opacity="0.4" d="M240.279 412.653H557.169C558.131 412.653 559.053 412.274 559.733 411.599C560.413 410.924 560.795 410.009 560.795 409.055C560.795 408.101 560.413 407.186 559.733 406.511C559.053 405.837 558.131 405.458 557.169 405.458H240.279C239.318 405.458 238.396 405.837 237.716 406.511C237.036 407.186 236.654 408.101 236.654 409.055C236.654 410.009 237.036 410.924 237.716 411.599C238.396 412.274 239.318 412.653 240.279 412.653Z" fill="white"/>
<path opacity="0.3" d="M370.307 341.313C369.854 341.309 369.408 341.206 369 341.012C368.592 340.818 368.232 340.538 367.946 340.191C367.659 339.844 367.452 339.439 367.34 339.004C367.229 338.569 367.215 338.115 367.299 337.674L368.576 331.153C368.756 330.264 369.24 329.463 369.945 328.886C370.65 328.309 371.535 327.991 372.449 327.985H426.009C426.464 327.984 426.913 328.084 427.323 328.279C427.733 328.474 428.093 328.757 428.378 329.109C428.671 329.452 428.881 329.857 428.991 330.293C429.102 330.729 429.111 331.184 429.017 331.624L427.739 338.144C427.567 339.034 427.089 339.836 426.386 340.414C425.683 340.992 424.8 341.31 423.887 341.313H370.307Z" fill="white"/>
<path d="M423.887 340.291H370.327C370.022 340.296 369.72 340.233 369.442 340.109C369.165 339.984 368.918 339.799 368.721 339.568C368.524 339.338 368.381 339.066 368.303 338.774C368.224 338.482 368.212 338.176 368.267 337.879L369.564 331.337C369.689 330.681 370.042 330.088 370.561 329.663C371.081 329.237 371.734 329.005 372.407 329.007H425.967C426.272 329.002 426.574 329.064 426.852 329.189C427.129 329.314 427.375 329.499 427.572 329.729C427.77 329.96 427.913 330.231 427.991 330.524C428.07 330.816 428.082 331.122 428.027 331.419L426.75 337.96C426.621 338.619 426.264 339.212 425.741 339.637C425.218 340.062 424.563 340.294 423.887 340.291Z" fill="white"/>
<path d="M379.385 336.169C380.435 334.68 380.319 332.801 379.126 331.973C377.932 331.145 376.114 331.681 375.064 333.17C374.014 334.66 374.13 336.538 375.324 337.367C376.517 338.195 378.336 337.659 379.385 336.169Z" fill="#263238"/>
<path d="M388.414 334.649C388.267 335.466 387.852 336.211 387.233 336.769C386.615 337.328 385.827 337.667 384.994 337.735C384.625 337.724 384.263 337.628 383.938 337.455C383.612 337.281 383.332 337.035 383.118 336.736C382.905 336.437 382.764 336.093 382.707 335.731C382.65 335.369 382.678 334.998 382.79 334.649C382.94 333.834 383.356 333.09 383.974 332.532C384.592 331.975 385.377 331.634 386.21 331.562C386.58 331.569 386.944 331.663 387.272 331.835C387.6 332.007 387.882 332.253 388.097 332.553C388.311 332.854 388.452 333.2 388.507 333.564C388.562 333.928 388.53 334.299 388.414 334.649Z" fill="#263238"/>
<path d="M396.798 334.649C396.648 335.464 396.231 336.208 395.614 336.765C394.996 337.323 394.21 337.664 393.378 337.735C393.007 337.727 392.643 337.633 392.315 337.461C391.987 337.289 391.704 337.044 391.488 336.744C391.272 336.445 391.129 336.1 391.071 335.736C391.013 335.372 391.041 335 391.154 334.649C391.308 333.832 391.728 333.088 392.35 332.53C392.971 331.973 393.759 331.633 394.594 331.562C394.963 331.574 395.325 331.67 395.65 331.843C395.976 332.016 396.256 332.262 396.47 332.561C396.683 332.86 396.824 333.205 396.881 333.567C396.938 333.929 396.91 334.299 396.798 334.649Z" fill="#263238"/>
<path d="M404.523 336.154C405.572 334.665 405.456 332.786 404.263 331.958C403.069 331.13 401.251 331.666 400.201 333.155C399.151 334.645 399.268 336.523 400.461 337.352C401.654 338.18 403.473 337.644 404.523 336.154Z" fill="#263238"/>
<path d="M413.546 334.649C413.391 335.466 412.971 336.21 412.35 336.767C411.728 337.325 410.94 337.665 410.105 337.735C409.736 337.724 409.375 337.628 409.049 337.455C408.724 337.281 408.443 337.035 408.229 336.736C408.016 336.437 407.875 336.093 407.818 335.731C407.761 335.369 407.79 334.998 407.901 334.649C408.055 333.835 408.472 333.093 409.089 332.536C409.706 331.979 410.49 331.637 411.321 331.562C411.692 331.57 412.056 331.664 412.384 331.836C412.712 332.008 412.995 332.254 413.211 332.553C413.427 332.853 413.57 333.198 413.628 333.562C413.686 333.926 413.658 334.298 413.546 334.649Z" fill="#263238"/>
<path d="M421.258 336.187C422.308 334.698 422.192 332.819 420.998 331.991C419.805 331.162 417.986 331.698 416.937 333.188C415.887 334.677 416.003 336.556 417.196 337.384C418.39 338.213 420.208 337.677 421.258 336.187Z" fill="#263238"/>
<path opacity="0.3" d="M431.365 341.313C431.018 341.317 430.676 341.244 430.362 341.099C430.048 340.954 429.771 340.74 429.552 340.475C429.317 340.194 429.152 339.863 429.07 339.508C428.988 339.153 428.99 338.784 429.078 338.431L430.705 330.254C430.849 329.584 431.215 328.982 431.746 328.544C432.277 328.107 432.941 327.859 433.631 327.842H441.871C442.217 327.838 442.559 327.911 442.873 328.056C443.187 328.201 443.464 328.414 443.683 328.68C443.918 328.96 444.083 329.291 444.165 329.646C444.247 330.001 444.245 330.37 444.157 330.724L442.53 338.901C442.386 339.57 442.02 340.173 441.489 340.61C440.958 341.048 440.294 341.295 439.605 341.313H431.365Z" fill="white"/>
<path d="M431.365 340.291H439.605C440.047 340.268 440.471 340.105 440.812 339.825C441.153 339.545 441.395 339.164 441.5 338.737L443.128 330.561C443.179 330.369 443.185 330.169 443.145 329.975C443.104 329.781 443.018 329.599 442.894 329.444C442.77 329.289 442.611 329.165 442.43 329.082C442.248 328.999 442.05 328.96 441.851 328.966H433.611C433.159 328.987 432.727 329.154 432.381 329.442C432.035 329.73 431.794 330.123 431.695 330.561L430.067 338.737C430.023 338.928 430.023 339.125 430.068 339.316C430.114 339.506 430.202 339.683 430.328 339.833C430.454 339.984 430.613 340.103 430.793 340.183C430.973 340.262 431.169 340.299 431.365 340.291Z" fill="#263238"/>
<path d="M435.547 338.226C435.484 338.229 435.422 338.217 435.365 338.192C435.308 338.167 435.258 338.13 435.217 338.083C435.143 337.965 435.117 337.823 435.144 337.687C435.171 337.551 435.248 337.429 435.361 337.347L438.637 334.649L436.453 331.951C436.374 331.834 436.345 331.691 436.372 331.553C436.399 331.415 436.48 331.294 436.597 331.215C436.696 331.126 436.824 331.076 436.958 331.076C437.091 331.076 437.22 331.126 437.318 331.215L439.79 334.281C439.869 334.398 439.898 334.541 439.871 334.678C439.844 334.816 439.763 334.938 439.646 335.017L435.959 338.083C435.843 338.177 435.697 338.228 435.547 338.226Z" fill="#407BFF"/>
<path d="M439.255 335.16H433.693C433.629 335.162 433.566 335.149 433.508 335.122C433.449 335.096 433.398 335.056 433.358 335.007C433.318 334.957 433.291 334.899 433.277 334.837C433.264 334.775 433.265 334.71 433.281 334.649C433.313 334.508 433.391 334.381 433.503 334.289C433.614 334.196 433.754 334.143 433.899 334.138H439.441C439.505 334.136 439.568 334.149 439.626 334.175C439.684 334.202 439.735 334.241 439.775 334.291C439.815 334.341 439.843 334.399 439.857 334.461C439.87 334.523 439.869 334.587 439.853 334.649C439.822 334.787 439.747 334.911 439.639 335.003C439.532 335.095 439.397 335.15 439.255 335.16Z" fill="#407BFF"/>
<path d="M258.716 210.366H303.129C307.817 210.366 311.617 206.595 311.617 201.944V157.873C311.617 153.222 307.817 149.451 303.129 149.451H258.716C254.029 149.451 250.229 153.222 250.229 157.873V201.944C250.229 206.595 254.029 210.366 258.716 210.366Z" fill="#407BFF"/>
<path d="M276.123 208.077L280.923 228.559L285.723 208.077H276.123Z" fill="#407BFF"/>
<path opacity="0.3" d="M280.388 198.163C275.163 195.072 270.802 190.734 267.7 185.542C264.598 180.351 262.856 174.472 262.63 168.441V167.787L280.903 160.06L299.154 167.787V168.441C298.942 174.473 297.207 180.355 294.108 185.548C291.009 190.741 286.646 195.078 281.418 198.163L280.882 198.49L280.388 198.163Z" fill="white"/>
<path opacity="0.6" d="M280.922 161.184L298.165 168.461C297.976 174.322 296.297 180.04 293.282 185.083C290.267 190.126 286.015 194.33 280.922 197.304V161.184Z" fill="white"/>
<path opacity="0.4" d="M280.923 161.184L263.66 168.461C263.851 174.324 265.533 180.043 268.552 185.087C271.57 190.13 275.826 194.333 280.923 197.304V161.184Z" fill="white"/>
<path d="M264.341 392.109L278.761 394.256C282.035 393.223 285.401 392.504 288.814 392.109C292.515 391.807 296.236 391.807 299.938 392.109C299.938 392.109 306.468 394.542 306.468 400.735C306.468 400.735 291.244 404.824 285.415 402.35L264.341 400.735V392.109Z" fill="#E4897B"/>
<path opacity="0.2" d="M264.341 392.109L278.761 394.256C282.035 393.223 285.401 392.504 288.814 392.109C292.515 391.807 296.236 391.807 299.938 392.109C299.938 392.109 306.468 394.542 306.468 400.735C306.468 400.735 291.244 404.824 285.415 402.35L264.341 400.735V392.109Z" fill="black"/>
<path d="M300.061 295.483C300.285 298.424 300.866 301.327 301.791 304.13C301.035 304.591 300.165 304.835 299.278 304.835C298.391 304.835 297.521 304.591 296.765 304.13L300.061 295.483Z" fill="#AA473D"/>
<path d="M305.685 291.395C305.128 292.724 304.14 293.582 303.46 293.296C302.78 293.01 302.718 291.743 303.254 290.414C303.789 289.085 304.799 288.247 305.479 288.513C306.158 288.779 306.22 290.087 305.685 291.395Z" fill="#263238"/>
<path d="M309.064 286.816C308.943 286.853 308.814 286.853 308.693 286.816C307.598 286.178 306.373 285.791 305.107 285.685C303.841 285.579 302.568 285.756 301.38 286.203C301.203 286.292 300.997 286.308 300.807 286.247C300.618 286.186 300.461 286.052 300.371 285.876C300.281 285.7 300.265 285.495 300.327 285.307C300.388 285.12 300.523 284.964 300.7 284.874C302.112 284.304 303.639 284.068 305.158 284.185C306.678 284.302 308.149 284.769 309.455 285.549C309.54 285.599 309.614 285.666 309.672 285.745C309.73 285.824 309.772 285.913 309.795 286.008C309.818 286.104 309.822 286.202 309.806 286.299C309.79 286.396 309.755 286.488 309.703 286.571C309.626 286.663 309.527 286.733 309.416 286.776C309.304 286.819 309.183 286.833 309.064 286.816Z" fill="#263238"/>
<path d="M296.044 306.603C295.57 307.176 295.096 307.728 294.581 308.239C291.696 311.213 287.967 313.245 283.89 314.064C282.857 314.272 281.81 314.409 280.758 314.473C277.988 314.645 275.214 314.202 272.637 313.177C270.061 312.151 267.748 310.569 265.865 308.545C264.165 306.714 262.861 304.558 262.033 302.208C258.346 292.397 262.033 284.67 267.368 271.076C268.555 267.89 270.541 265.057 273.14 262.845C275.739 260.634 278.863 259.117 282.218 258.44C285.572 257.762 289.046 257.946 292.309 258.973C295.572 260 298.517 261.838 300.864 264.31C311.535 275.471 304.366 295.974 296.044 306.603Z" fill="#E4897B"/>
<path opacity="0.2" d="M283.89 314.064C282.857 314.272 281.811 314.409 280.759 314.473C277.989 314.645 275.214 314.202 272.638 313.177C270.062 312.151 267.748 310.569 265.865 308.545C267.189 307.225 268.677 306.077 270.294 305.132C275.598 306.749 280.319 309.851 283.89 314.064Z" fill="black"/>
<path d="M239.478 314.575C240.837 324.142 261.932 327.719 261.932 327.719C261.932 327.719 272.232 332.421 272.767 328.332C268.462 323.386 267.988 319.073 269.471 315.291C270.455 312.984 271.899 310.898 273.715 309.158C274.683 308.161 275.708 307.219 276.784 306.338L270.336 280.132C265.701 290.148 249.922 313.145 239.478 314.575Z" fill="#E4897B"/>
<path d="M299.669 256.972C299.669 256.972 304.181 256.42 307.642 264.76C310.546 271.771 303.686 273.305 303.995 280.766C304.304 288.227 297.403 292.376 297.403 292.376C297.403 292.376 291.635 297.323 286.712 294.645C286.712 294.645 280.285 297.773 278.596 303.231C276.906 308.688 266.957 298.836 257.996 300.328C257.996 300.328 251.939 294.707 252.392 281.052C252.735 275.123 254.203 269.311 256.718 263.922C257.906 261.069 259.655 258.479 261.862 256.303C264.069 254.127 266.69 252.409 269.573 251.248C279.811 246.629 297.754 250.063 299.669 256.972Z" fill="#263238"/>
<path d="M285.476 290.537C285.165 291.897 285.162 293.308 285.469 294.67C285.775 296.031 286.383 297.307 287.248 298.407C289.431 300.778 292.954 297.773 294.375 293.623C295.611 289.923 296.044 284.138 292.83 283.403C289.617 282.667 286.156 286.551 285.476 290.537Z" fill="#E4897B"/>
<path d="M287.742 322.486C284.79 330.663 282.153 338.499 279.832 345.994C278.349 350.654 276.989 355.213 275.712 359.608C274.668 363.301 273.693 366.885 272.787 370.36C272.354 372.036 271.922 373.692 271.51 375.327C269.244 384.342 267.39 392.559 265.968 399.856C263.568 411.248 261.786 422.759 260.633 434.341L179.881 424.243C182.682 410.465 184.866 398.426 187.915 385.405C189.604 378.291 191.52 370.891 194.095 362.776C195.825 356.95 197.844 350.757 200.275 344.031C208.391 320.933 215.869 314.535 215.869 314.535C246.748 309.629 287.742 322.486 287.742 322.486Z" fill="#263238"/>
<path d="M314.625 393.601L329.045 395.748C332.32 394.715 335.686 393.996 339.098 393.601C342.807 393.3 346.534 393.3 350.243 393.601C350.243 393.601 356.752 396.034 356.752 402.228C356.752 402.228 341.55 406.316 335.699 403.843L314.646 402.228L314.625 393.601Z" fill="#E4897B"/>
<path d="M225.366 657.846L240.425 658.111L247.923 623.668L232.885 623.402L225.366 657.846Z" fill="#EBB376"/>
<path opacity="0.2" d="M232.884 623.402L247.922 623.688L243.637 643.373L228.744 642.392L232.884 623.402Z" fill="black"/>
<path d="M273.755 573.505C268.017 595.425 260.685 616.904 251.816 637.772L224.356 635.728C224.356 635.728 235.624 592.045 239.703 552.021C242.237 527.328 242.01 506.887 234.718 505.313C230.145 504.311 219.412 504.332 205.651 504.659V453.76C244.235 461.63 282.634 476.45 285.559 488.347C289.638 505.088 282.51 540.533 273.755 573.505Z" fill="#407BFF"/>
<path d="M221.431 636.955L254.144 639.122L258.964 625.078L222.914 623.423L221.431 636.955Z" fill="#407BFF"/>
<path opacity="0.2" d="M221.431 636.955L254.144 639.122L258.964 625.078L222.914 623.423L221.431 636.955Z" fill="white"/>
<path d="M242.691 657.376H243C243 657.376 243.35 657.478 243.391 657.519H243.515C244.787 657.918 246.099 658.179 247.429 658.295C248.419 658.478 249.442 658.281 250.292 657.744C250.561 657.511 250.757 657.205 250.856 656.864C250.955 656.523 250.952 656.161 250.848 655.822C250.815 655.6 250.729 655.389 250.596 655.208C250.463 655.026 250.288 654.879 250.086 654.78C248.663 654.554 247.206 654.829 245.966 655.556C246.852 654.629 247.378 653.419 247.449 652.143C247.389 651.841 247.232 651.567 247.001 651.36C246.771 651.154 246.481 651.027 246.172 650.998C245.586 650.912 244.99 651.051 244.503 651.386C242.917 652.735 242.67 656.967 242.67 657.212L242.691 657.376ZM244.318 656.517L244.009 656.681C243.911 655.065 244.353 653.463 245.266 652.122C245.365 652.023 245.484 651.947 245.616 651.898C245.747 651.848 245.887 651.827 246.028 651.836H246.213C246.708 651.836 246.811 652.163 246.831 652.367C246.513 654.002 245.623 655.471 244.318 656.517ZM244.524 657.253C246.337 656.251 248.912 655.209 249.88 655.597C249.976 655.647 250.059 655.72 250.12 655.809C250.181 655.898 250.219 656.001 250.23 656.108C250.291 656.323 250.292 656.55 250.234 656.766C250.176 656.982 250.061 657.178 249.901 657.335C249.159 657.989 247.181 657.948 244.524 657.253Z" fill="#407BFF"/>
<path d="M242.34 655.577L225.469 654.534C225.188 654.506 224.907 654.588 224.687 654.764C224.467 654.941 224.326 655.196 224.295 655.475L222.647 668.659C222.601 669.352 222.833 670.035 223.292 670.559C223.751 671.084 224.4 671.407 225.098 671.46C230.99 671.725 233.812 671.562 241.228 671.971C247.811 672.643 254.433 672.847 261.045 672.584C267.225 671.991 266.545 665.838 263.847 665.552C257.399 664.816 248.891 660.135 244.853 656.578C244.153 655.973 243.268 655.62 242.34 655.577Z" fill="#263238"/>
<path opacity="0.2" d="M273.755 573.505C263.455 567.066 251.486 559.482 239.703 551.98C242.237 527.287 242.01 506.846 234.718 505.272C230.145 504.27 219.412 504.291 205.651 504.618V453.76C244.235 461.63 282.634 476.45 285.559 488.347C289.638 505.088 282.51 540.533 273.755 573.505Z" fill="black"/>
<path d="M313.39 657.846L328.448 658.111L335.947 623.668L320.909 623.402L313.39 657.846Z" fill="#EBB376"/>
<path opacity="0.2" d="M320.909 623.402L335.947 623.688L331.662 643.373L316.769 642.392L320.909 623.402Z" fill="black"/>
<path d="M258.717 448.772L261.148 429.476L182.517 416.618C182.517 416.618 156.788 467.19 169.375 492.047C180.931 514.777 303.831 501.225 322.742 505.333C341.652 509.442 312.442 635.769 312.442 635.769L339.922 637.813C339.922 637.813 382.358 524.16 373.644 488.408C369.771 472.77 304.984 452.104 258.717 448.772Z" fill="#407BFF"/>
<path d="M309.455 636.955L342.167 639.122L346.988 625.078L310.938 623.423L309.455 636.955Z" fill="#407BFF"/>
<path opacity="0.2" d="M309.455 636.955L342.167 639.122L346.988 625.078L310.938 623.423L309.455 636.955Z" fill="white"/>
<path d="M330.714 657.376H331.023C331.023 657.376 331.373 657.478 331.414 657.519H331.538C332.81 657.918 334.123 658.179 335.452 658.295C336.442 658.478 337.466 658.281 338.315 657.744C338.585 657.511 338.781 657.205 338.879 656.864C338.978 656.523 338.975 656.161 338.872 655.822C338.839 655.6 338.752 655.389 338.619 655.208C338.487 655.026 338.312 654.879 338.109 654.78C336.687 654.554 335.229 654.829 333.989 655.556C334.876 654.629 335.401 653.419 335.473 652.143C335.412 651.841 335.255 651.567 335.025 651.36C334.795 651.154 334.504 651.027 334.195 650.998C333.61 650.912 333.013 651.051 332.527 651.386C330.941 652.735 330.693 656.967 330.693 657.212L330.714 657.376ZM332.341 656.517L332.032 656.681C331.935 655.065 332.376 653.463 333.289 652.122C333.388 652.023 333.508 651.947 333.639 651.898C333.77 651.848 333.911 651.827 334.051 651.836H334.237C334.731 651.836 334.834 652.163 334.855 652.367C334.54 654.008 333.64 655.481 332.321 656.517H332.341ZM332.547 657.253C334.36 656.251 336.935 655.209 337.903 655.597C338 655.647 338.082 655.72 338.143 655.809C338.204 655.898 338.242 656.001 338.254 656.108C338.314 656.323 338.316 656.55 338.258 656.766C338.2 656.982 338.085 657.178 337.924 657.335C337.182 657.989 335.205 657.948 332.547 657.253Z" fill="#407BFF"/>
<path d="M330.364 655.577L313.492 654.534C313.211 654.506 312.93 654.588 312.71 654.764C312.49 654.941 312.349 655.196 312.318 655.475L310.67 668.659C310.625 669.352 310.857 670.035 311.316 670.559C311.775 671.084 312.424 671.407 313.122 671.46C319.013 671.725 321.835 671.562 329.251 671.971C335.834 672.643 342.457 672.847 349.069 672.584C355.352 671.991 354.589 665.838 351.87 665.552C345.422 664.816 336.915 660.135 332.877 656.578C332.177 655.973 331.291 655.62 330.364 655.577Z" fill="#263238"/>
<path d="M179.633 425.408L216.054 430.15L217.249 424.815L180.746 419.541L179.633 425.408Z" fill="black"/>
<path d="M220.278 424.856L219.825 430.15L253.506 434.75V429.496L220.278 424.856Z" fill="black"/>
<path d="M255.586 429.803V434.75L260.489 435.383V430.6L255.586 429.803Z" fill="black"/>
<path opacity="0.2" d="M279.832 345.994C278.349 350.654 276.989 355.213 275.712 359.608C274.668 363.301 273.693 366.885 272.787 370.36C270.253 356.664 274.847 340.311 274.847 340.311L279.832 345.994Z" fill="black"/>
<path d="M287.742 322.384C294.314 323.713 296.477 374.387 296.765 379.783C297.053 385.18 329.025 395.666 329.025 395.666V403.045C329.025 403.045 294.746 400.674 286.733 397.424C278.719 394.174 276.701 347.241 276.701 347.241L287.742 322.384Z" fill="#E4897B"/>
<path d="M287.743 322.384C293.779 324.244 296.766 357.666 296.766 357.666L278.102 365.311L273.467 346.73C273.467 346.73 272.149 342.948 274.744 334.976C278.514 323.345 287.743 322.384 287.743 322.384Z" fill="#263238"/>
<path d="M148.528 489.021H297.301C301.622 489.021 305.767 490.725 308.823 493.757C311.879 496.789 313.595 500.902 313.595 505.19V513.837H132.233V505.19C132.233 500.902 133.95 496.789 137.005 493.757C140.061 490.725 144.206 489.021 148.528 489.021Z" fill="#407BFF"/>
<path d="M196.917 427.554H296.806C298.01 427.554 299.198 427.824 300.283 428.343C301.367 428.862 302.319 429.618 303.067 430.553C303.816 431.489 304.342 432.58 304.606 433.746C304.87 434.911 304.866 436.121 304.593 437.284L286.732 513.837H282.612L297.815 446.749C298.082 445.589 298.081 444.385 297.814 443.225C297.546 442.066 297.019 440.981 296.27 440.052C295.522 439.123 294.572 438.373 293.491 437.859C292.411 437.344 291.227 437.078 290.029 437.08H198.956L196.917 427.554Z" fill="#263238"/>
<path d="M234.739 516.576V581.273C234.739 582.27 234.339 583.227 233.628 583.932C232.918 584.638 231.953 585.034 230.948 585.034H214.901C213.895 585.034 212.931 584.638 212.221 583.932C211.51 583.227 211.11 582.27 211.11 581.273V516.576H234.739Z" fill="#263238"/>
<path d="M146.488 665.92C146.488 664.562 146.082 663.234 145.322 662.104C144.561 660.975 143.48 660.094 142.215 659.575C140.951 659.055 139.559 658.919 138.216 659.184C136.874 659.449 135.64 660.103 134.672 661.063C133.704 662.024 133.045 663.248 132.778 664.58C132.511 665.912 132.648 667.293 133.172 668.548C133.696 669.803 134.583 670.876 135.721 671.631C136.859 672.385 138.198 672.788 139.567 672.788C141.402 672.788 143.163 672.065 144.461 670.777C145.759 669.489 146.488 667.742 146.488 665.92Z" fill="#263238"/>
<path opacity="0.2" d="M143.027 665.92C143.027 665.241 142.824 664.577 142.444 664.012C142.064 663.447 141.523 663.007 140.891 662.747C140.258 662.487 139.562 662.419 138.891 662.552C138.22 662.684 137.603 663.011 137.119 663.492C136.635 663.972 136.306 664.584 136.172 665.25C136.038 665.916 136.107 666.607 136.369 667.234C136.631 667.862 137.074 668.398 137.644 668.775C138.213 669.153 138.882 669.354 139.566 669.354C140.482 669.349 141.36 668.985 142.007 668.342C142.655 667.699 143.022 666.829 143.027 665.92Z" fill="white"/>
<path d="M313.245 665.92C313.249 664.556 312.845 663.221 312.083 662.085C311.322 660.949 310.238 660.063 308.969 659.539C307.699 659.015 306.302 658.877 304.953 659.142C303.605 659.407 302.366 660.064 301.394 661.028C300.422 661.993 299.76 663.222 299.493 664.561C299.226 665.899 299.365 667.286 299.893 668.545C300.421 669.805 301.314 670.88 302.458 671.636C303.603 672.391 304.948 672.792 306.323 672.788C308.157 672.783 309.915 672.057 311.211 670.771C312.508 669.484 313.239 667.74 313.245 665.92Z" fill="#263238"/>
<path opacity="0.2" d="M309.784 665.92C309.784 665.241 309.581 664.577 309.201 664.012C308.82 663.447 308.28 663.007 307.647 662.747C307.015 662.487 306.319 662.419 305.648 662.552C304.977 662.684 304.36 663.011 303.876 663.492C303.392 663.972 303.062 664.584 302.929 665.25C302.795 665.916 302.864 666.607 303.126 667.234C303.388 667.862 303.831 668.398 304.4 668.775C304.97 669.153 305.639 669.354 306.323 669.354C307.239 669.349 308.116 668.985 308.764 668.342C309.412 667.699 309.778 666.829 309.784 665.92Z" fill="white"/>
<path d="M228.661 635.749V561.792H217.208V635.749C172.588 636.893 145.458 652.368 140.04 655.761C139.72 655.949 139.458 656.219 139.28 656.543C139.102 656.866 139.016 657.232 139.031 657.6V663.733C139.028 664.019 139.083 664.303 139.191 664.568C139.3 664.834 139.46 665.075 139.663 665.278C139.866 665.482 140.108 665.643 140.374 665.753C140.64 665.863 140.926 665.92 141.215 665.92C141.6 665.917 141.978 665.813 142.311 665.619C142.643 665.426 142.919 665.149 143.11 664.816L145.767 660.197C168.884 652.882 192.948 648.929 217.208 648.463V660.728C217.208 661.097 217.282 661.463 217.425 661.804C217.568 662.146 217.778 662.455 218.042 662.715C218.306 662.976 218.62 663.182 218.964 663.321C219.309 663.461 219.678 663.531 220.051 663.528H225.839C226.588 663.528 227.306 663.233 227.835 662.708C228.364 662.183 228.661 661.471 228.661 660.728V648.463C252.928 648.928 276.999 652.88 300.123 660.197L302.76 664.816C302.952 665.152 303.231 665.43 303.568 665.624C303.904 665.818 304.286 665.92 304.676 665.92C305.257 665.915 305.812 665.682 306.221 665.272C306.63 664.863 306.859 664.309 306.859 663.733V657.6C306.874 657.232 306.788 656.866 306.61 656.543C306.432 656.219 306.17 655.949 305.85 655.761C300.411 652.368 273.302 636.893 228.661 635.749Z" fill="#263238"/>
<path d="M226.705 659.031H219.186V672.788H226.705V659.031Z" fill="#263238"/>
<path opacity="0.2" d="M234.738 516.515H211.172V543.395H234.738V516.515Z" fill="black"/>
<path d="M318.621 509.851V517.578C318.621 518.097 318.518 518.612 318.317 519.092C318.116 519.572 317.821 520.008 317.45 520.375C317.078 520.741 316.637 521.031 316.153 521.228C315.668 521.425 315.149 521.526 314.625 521.523H131.285C130.762 521.526 130.244 521.425 129.76 521.228C129.277 521.031 128.837 520.74 128.468 520.373C128.098 520.006 127.805 519.57 127.606 519.091C127.407 518.611 127.306 518.096 127.309 517.578V509.851C127.309 508.805 127.728 507.801 128.474 507.061C129.219 506.321 130.23 505.906 131.285 505.906H314.625C315.681 505.906 316.695 506.321 317.444 507.06C318.192 507.799 318.616 508.803 318.621 509.851Z" fill="#263238"/>
<path d="M234.264 513.837H127.289C127.289 513.837 93.3604 457.746 93.3604 365.065V331.031C93.3658 324.312 96.0595 317.87 100.849 313.121C105.639 308.372 112.133 305.704 118.904 305.704H164.224C170.857 305.701 177.23 308.259 181.994 312.838C186.758 317.417 189.539 323.656 189.748 330.233C191.046 378.066 198.132 481.478 234.264 513.837Z" fill="#263238"/>
<path opacity="0.2" d="M210.78 513.837H132.109C130.622 513.844 129.161 513.442 127.889 512.678C126.617 511.913 125.582 510.815 124.899 509.503C117.153 494.704 93.3604 442.722 93.3604 365.065V331.031C93.3604 324.314 96.0494 317.872 100.836 313.122C105.623 308.372 112.115 305.704 118.884 305.704H158.024C164.656 305.701 171.029 308.259 175.793 312.838C180.557 317.417 183.338 323.656 183.547 330.233C184.721 372.894 190.489 459.995 217.475 501.143C218.291 502.363 218.761 503.777 218.837 505.239C218.914 506.701 218.593 508.157 217.909 509.454C217.225 510.751 216.203 511.841 214.949 512.612C213.695 513.383 212.255 513.806 210.78 513.837Z" fill="white"/>
<path opacity="0.2" d="M318.621 509.851V517.578C318.621 518.624 318.202 519.627 317.457 520.367C316.711 521.107 315.7 521.523 314.645 521.523H232.472C231.767 521.526 231.068 521.39 230.416 521.124C229.764 520.858 229.171 520.467 228.671 519.973C228.172 519.48 227.775 518.893 227.505 518.247C227.234 517.601 227.095 516.908 227.095 516.208V511.241C227.095 509.826 227.662 508.469 228.67 507.468C229.678 506.468 231.046 505.906 232.472 505.906H314.625C315.681 505.906 316.694 506.321 317.443 507.06C318.192 507.799 318.616 508.803 318.621 509.851Z" fill="black"/>
<path d="M127.248 302.699L134.046 293.868C134.046 293.868 163.071 295.177 163.771 305.704C164.472 316.231 127.248 302.699 127.248 302.699Z" fill="#407BFF"/>
<path d="M108.172 329.13C108.172 329.13 109.944 375.94 108.172 496.748C108.172 500.836 92.8045 500.673 91.6921 496.748C88.0047 482.991 91.6921 373.14 91.6921 373.14" fill="#407BFF"/>
<path d="M92.0415 497.361L107.677 497.893V505.64L92.0415 504.843V497.361Z" fill="#407BFF"/>
<path opacity="0.2" d="M108.172 329.13C108.172 329.13 109.944 375.94 108.172 496.748C108.172 500.836 92.8045 500.673 91.6921 496.748C88.0047 482.991 91.6921 373.14 91.6921 373.14" fill="white"/>
<path d="M84.3171 472.055C83.4725 449.774 80.4031 347.363 93.2987 313.431C93.2987 313.431 105.432 298.141 146.488 298.141C187.544 298.141 199.904 327.065 199.904 327.065C199.904 327.065 201.675 373.855 199.904 494.684C199.904 498.772 184.536 498.629 183.424 494.684C179.736 480.947 183.424 371.075 183.424 371.075L175.184 471.033C175.154 471.368 175.055 471.694 174.894 471.99C174.732 472.286 174.512 472.546 174.246 472.755C173.98 472.963 173.674 473.116 173.346 473.203C173.018 473.29 172.676 473.31 172.341 473.261C159.383 471.217 102.301 463.265 87.2011 473.486C86.9275 473.661 86.6128 473.762 86.288 473.779C85.9632 473.796 85.6394 473.73 85.3485 473.585C85.0575 473.441 84.8095 473.224 84.6286 472.956C84.4478 472.687 84.3404 472.377 84.3171 472.055Z" fill="#407BFF"/>
<path d="M183.774 495.297L199.409 495.828V503.575L183.774 502.778V495.297Z" fill="#407BFF"/>
<path d="M173.186 473.363L171.95 481.54C171.95 481.54 108.234 467.762 87.5929 482.439L86.3569 473.384C86.3569 473.384 102.301 458.789 173.186 473.363Z" fill="#407BFF"/>
<path opacity="0.4" d="M84.3171 472.055C83.4725 449.774 80.4031 347.363 93.2987 313.431C93.2987 313.431 105.432 298.141 146.488 298.141C187.544 298.141 199.904 327.065 199.904 327.065C199.904 327.065 201.675 373.855 199.904 494.684C199.904 498.772 184.536 498.629 183.424 494.684C179.736 480.947 183.424 371.075 183.424 371.075L175.184 471.033C175.154 471.368 175.055 471.694 174.894 471.99C174.732 472.286 174.512 472.546 174.246 472.755C173.98 472.963 173.674 473.116 173.346 473.203C173.018 473.29 172.676 473.31 172.341 473.261C159.383 471.217 102.301 463.265 87.2011 473.486C86.9275 473.661 86.6128 473.762 86.288 473.779C85.9632 473.796 85.6394 473.73 85.3485 473.585C85.0575 473.441 84.8095 473.224 84.6286 472.956C84.4478 472.687 84.3404 472.377 84.3171 472.055Z" fill="white"/>
<path opacity="0.2" d="M183.485 371.075C183.485 371.075 184.391 339.35 199.965 327.065C199.903 327.065 180.498 335.344 183.485 371.075Z" fill="black"/>
<path opacity="0.2" d="M136.765 301.8C136.765 301.8 118.019 312.02 115.032 451.287C115.032 451.287 106.874 310.794 136.765 301.8Z" fill="black"/>
</g>
<defs>
<clipPath id="clip0_2_1141">
<rect width="1042" height="696" fill="white"/>
</clipPath>
</defs>
</svg>
