<svg width="1042" height="696" viewBox="0 0 1042 696" fill="none" xmlns="http://www.w3.org/2000/svg">
<path d="M1029 595.614H5V596.126H1029V595.614Z" fill="#EBEBEB"/>
<path d="M926.395 628.567H858.565V629.079H926.395V628.567Z" fill="#EBEBEB"/>
<path d="M683.339 634.137H665.542V634.649H683.339V634.137Z" fill="#EBEBEB"/>
<path d="M856.517 609.561H817.216V610.073H856.517V609.561Z" fill="#EBEBEB"/>
<path d="M200.891 613.002H112.438V613.514H200.891V613.002Z" fill="#EBEBEB"/>
<path d="M232.103 613.002H219.139V613.514H232.103V613.002Z" fill="#EBEBEB"/>
<path d="M466.107 621.644H274.25V622.156H466.107V621.644Z" fill="#EBEBEB"/>
<path d="M653.274 390.917H899.341C899.34 395.264 897.661 399.443 894.655 402.583C891.648 405.723 887.546 407.582 883.203 407.772C856.763 408.98 816.069 413.158 803.187 427.781C779.123 455.06 781.458 550.866 810.274 573.045C819.285 580.009 845.622 593.812 845.622 593.812H706.993C706.993 593.812 731.569 579.722 740.15 573.045C768.822 550.681 769.621 454.937 745.454 427.781C733.064 413.854 694.93 409.349 669.351 407.936C665.002 407.695 660.912 405.796 657.921 402.63C654.93 399.464 653.267 395.272 653.274 390.917Z" fill="#F5F5F5"/>
<path d="M868.846 408.673C843.861 410.721 813.919 415.616 803.187 427.781C799.683 431.983 796.914 436.747 794.995 441.871H753.728C751.784 436.759 749.017 432 745.536 427.781C734.764 415.677 704.576 410.7 680 408.673H868.846Z" fill="#E6E6E6"/>
<path d="M758.091 391.04L761.449 352.803H712.932L709.594 391.04H758.091Z" fill="#EBEBEB"/>
<path d="M758.091 391.04L761.449 352.803H764.05L760.712 391.04H758.091Z" fill="#E0E0E0"/>
<path d="M753.482 387.148L756.145 356.695H717.54L714.878 387.148H753.482Z" fill="#F0F0F0"/>
<path d="M750.533 384.629L752.745 359.214H720.51L718.277 384.629H750.533Z" fill="#FAFAFA"/>
<path d="M773.819 390.917H822.541L817.134 329.129H768.413L773.819 390.917Z" fill="#E6E6E6"/>
<path d="M773.819 390.917H771.505L766.098 329.129H768.412L773.819 390.917Z" fill="#E0E0E0"/>
<path d="M778.243 384.629H817.032L812.731 335.437H773.942L778.243 384.629Z" fill="#F0F0F0"/>
<path d="M781.069 380.574H813.489L809.884 339.491H777.485L781.069 380.574Z" fill="#FAFAFA"/>
<path d="M797.453 357.964C796.93 358.491 796.307 358.908 795.622 359.194C794.937 359.479 794.202 359.625 793.459 359.625C792.717 359.625 791.982 359.479 791.297 359.194C790.611 358.908 789.989 358.491 789.466 357.964C788.414 356.906 787.824 355.474 787.824 353.981C787.824 352.489 788.414 351.057 789.466 349.998C790.528 348.945 791.963 348.354 793.459 348.354C794.955 348.354 796.391 348.945 797.453 349.998C798.505 351.057 799.095 352.489 799.095 353.981C799.095 355.474 798.505 356.906 797.453 357.964Z" fill="#EBEBEB"/>
<path d="M795.057 364.887C795.438 364.5 795.892 364.192 796.393 363.983C796.894 363.773 797.432 363.665 797.975 363.665C798.519 363.665 799.056 363.773 799.557 363.983C800.058 364.192 800.513 364.5 800.894 364.887C801.486 365.457 801.893 366.193 802.061 366.998C802.229 367.802 802.152 368.639 801.838 369.399C801.524 370.159 800.989 370.807 800.302 371.259C799.615 371.711 798.808 371.945 797.986 371.932C797.162 371.949 796.352 371.718 795.661 371.268C794.971 370.818 794.433 370.17 794.116 369.409C793.8 368.648 793.721 367.809 793.888 367.003C794.056 366.196 794.463 365.458 795.057 364.887Z" fill="#F0F0F0"/>
<path d="M172.363 320.486H402.128L402.128 66.3702L172.363 66.3702L172.363 320.486Z" fill="#E0E0E0"/>
<path d="M165.031 320.486L403.336 320.486L403.336 66.3702L165.031 66.3702L165.031 320.486Z" fill="#F0F0F0"/>
<path d="M175.127 308.792H393.649L393.649 74.4599L175.127 74.4599L175.127 308.792Z" fill="white"/>
<path d="M175.107 308.792H181.435L181.435 74.4599H175.107L175.107 308.792Z" fill="#E0E0E0"/>
<path d="M180.759 242.969V249.298H394.202V242.969H180.759Z" fill="#E0E0E0"/>
<path d="M175.107 242.969L397.028 242.969V232.361L175.107 232.361V242.969Z" fill="#F0F0F0"/>
<path d="M779.943 109.87C779.943 109.87 781.991 96.353 772.14 87.6899C762.289 79.0269 763.149 73.8659 765.996 73.1901C768.842 72.5143 771.402 81.1978 775.744 83.5735C775.744 83.5735 775.888 71.2855 771.484 66.6775C767.081 62.0695 764.767 50.4163 768.965 50.2935C773.164 50.1706 773.573 57.2567 774.454 62.3357C775.335 67.4147 779.984 74.6237 779.984 74.6237C779.984 74.6237 780.885 63.5645 783.731 59.0179C786.578 54.4714 779 44.0675 781.929 39.521C784.858 34.9744 790.121 43.617 789.609 53.3859C789.097 63.1549 782.687 73.5383 784.202 83.7168C784.202 83.7168 787.07 76.5693 789.63 75.9139C792.19 75.2586 794.811 70.5482 796.531 68.7869C798.252 67.0256 800.443 73.1082 796.531 78.7402C792.62 84.3722 782.687 99.4455 784.243 111.611L779.943 109.87Z" fill="#E6E6E6"/>
<path d="M774.045 103.726L770.809 123.981C770.563 125.459 770.644 126.973 771.048 128.416C771.451 129.86 772.166 131.197 773.143 132.334C774.119 133.47 775.333 134.379 776.7 134.995C778.066 135.611 779.55 135.92 781.049 135.9H784.489C785.988 135.92 787.473 135.611 788.839 134.995C790.205 134.379 791.419 133.47 792.395 132.334C793.372 131.197 794.087 129.86 794.49 128.416C794.894 126.973 794.975 125.459 794.729 123.981L791.432 103.726H774.045Z" fill="#F5F5F5"/>
<path d="M822.848 128.425H594.701V140.139H822.848V128.425Z" fill="#E6E6E6"/>
<path d="M615.263 85.2118H605.208V128.425H615.263V85.2118Z" fill="#F0F0F0"/>
<path d="M663.862 85.2118H653.806V128.425H663.862V85.2118Z" fill="#F0F0F0"/>
<path d="M719.046 84.1138L709.136 85.8219L716.476 128.407L726.386 126.699L719.046 84.1138Z" fill="#F0F0F0"/>
<path d="M627.715 90.9053H617.659V128.425H627.715V90.9053Z" fill="#F0F0F0"/>
<path d="M650.816 90.9053H640.761V128.425H650.816V90.9053Z" fill="#F0F0F0"/>
<path d="M709.143 90.9053H699.088V128.425H709.143V90.9053Z" fill="#F0F0F0"/>
<path d="M677.061 89.5782L667.245 91.7598L675.385 128.386L685.201 126.204L677.061 89.5782Z" fill="#F0F0F0"/>
<path d="M636.398 83.0615H631.381V128.425H636.398V83.0615Z" fill="#F0F0F0"/>
<path d="M696.179 83.0615H691.162V128.425H696.179V83.0615Z" fill="#F0F0F0"/>
<path d="M594.722 227.65L822.869 227.65V215.936L594.722 215.936V227.65Z" fill="#E6E6E6"/>
<path d="M802.307 215.936H812.363V172.723H802.307V215.936Z" fill="#F0F0F0"/>
<path d="M753.708 215.936H763.764V172.723H753.708V215.936Z" fill="#F0F0F0"/>
<path d="M691.209 214.187L701.119 215.895L708.459 173.31L698.549 171.602L691.209 214.187Z" fill="#F0F0F0"/>
<path d="M789.855 215.936H799.911V178.416H789.855V215.936Z" fill="#F0F0F0"/>
<path d="M766.754 215.936H776.809V178.416H766.754V215.936Z" fill="#F0F0F0"/>
<path d="M708.426 215.936H718.482V178.416H708.426V215.936Z" fill="#F0F0F0"/>
<path d="M732.391 213.708L742.208 215.89L750.347 179.264L740.531 177.083L732.391 213.708Z" fill="#F0F0F0"/>
<path d="M781.172 215.936H786.189V170.572H781.172V215.936Z" fill="#F0F0F0"/>
<path d="M721.39 244.608H726.408V199.244H721.39V244.608Z" fill="#F0F0F0"/>
<path d="M616.615 215.547H665.583V181.734H616.615V215.547Z" fill="#F5F5F5"/>
<path d="M517 688.102C736.305 688.102 914.087 677.722 914.087 664.919C914.087 652.115 736.305 641.735 517 641.735C297.695 641.735 119.913 652.115 119.913 664.919C119.913 677.722 297.695 688.102 517 688.102Z" fill="#F5F5F5"/>
<path d="M685.899 613.698C685.899 613.698 675.659 591.58 687.332 569.748C699.006 547.916 702.283 542.796 694.91 538.332C687.537 533.867 684.117 555.883 684.117 555.883C680.449 545.979 680.068 535.157 683.032 525.02C688.172 509.23 691.408 483.527 684.383 480.763C677.359 477.998 683.052 512.834 676.949 524.713C673.843 516.38 671.839 507.678 670.989 498.826C670.15 486.149 671.46 465.894 665.91 460.713C660.36 455.531 656.817 459.095 662.265 487.091C665.539 503.804 667.348 520.771 667.672 537.799C667.672 537.799 655.65 501.099 647.56 500.034C639.471 498.969 639.491 510.848 646.413 521.149C653.336 531.451 666.668 549.924 668.839 559.426C668.839 559.426 655.629 531.819 643.751 540.277C631.873 548.736 654.093 565.427 664.006 571.448C673.918 577.469 680.799 615.255 680.799 615.255L685.899 613.698Z" fill="#407BFF"/>
<path opacity="0.2" d="M685.899 613.698C685.899 613.698 675.659 591.58 687.332 569.748C699.006 547.916 702.283 542.796 694.91 538.332C687.537 533.867 684.117 555.883 684.117 555.883C680.449 545.979 680.068 535.157 683.032 525.02C688.172 509.23 691.408 483.527 684.383 480.763C677.359 477.998 683.052 512.834 676.949 524.713C673.843 516.38 671.839 507.678 670.989 498.826C670.15 486.149 671.46 465.894 665.91 460.713C660.36 455.531 656.817 459.095 662.265 487.091C665.539 503.804 667.348 520.771 667.672 537.799C667.672 537.799 655.65 501.099 647.56 500.034C639.471 498.969 639.491 510.848 646.413 521.149C653.336 531.451 666.668 549.924 668.839 559.426C668.839 559.426 655.629 531.819 643.751 540.277C631.873 548.736 654.093 565.427 664.006 571.448C673.918 577.469 680.799 615.255 680.799 615.255L685.899 613.698Z" fill="black"/>
<path d="M677.891 622.771C677.891 622.771 687.762 600.489 675.843 578.862C663.924 557.235 660.565 552.115 667.897 547.548C675.229 542.981 678.874 564.833 678.874 564.833C682.426 554.883 682.677 544.053 679.591 533.949C674.266 518.261 670.723 492.6 677.727 489.733C684.731 486.866 679.447 521.784 685.673 533.56C688.687 525.182 690.588 516.444 691.326 507.571C692.022 494.894 690.466 474.659 695.954 469.396C701.443 464.133 705.027 467.655 699.907 495.713C696.829 512.471 695.225 529.466 695.115 546.503C695.115 546.503 706.706 509.639 714.776 508.451C722.845 507.264 722.968 519.142 716.168 529.546C709.369 539.95 696.282 558.627 694.193 568.151C694.193 568.151 707.075 540.339 719.056 548.633C731.037 556.928 709.021 573.926 699.19 580.111C689.36 586.296 682.929 624.163 682.929 624.163L677.891 622.771Z" fill="#407BFF"/>
<path d="M723.439 606.899H641.846L648.461 665.287H716.844L723.439 606.899Z" fill="#E0E0E0"/>
<path opacity="0.2" d="M883.694 26.2704H452.467C449.662 26.2704 447.388 28.5443 447.388 31.3494V414.366C447.388 417.171 449.662 419.445 452.467 419.445H883.694C886.499 419.445 888.773 417.171 888.773 414.366V31.3494C888.773 28.5443 886.499 26.2704 883.694 26.2704Z" fill="black"/>
<path d="M867.003 19H435.776C432.971 19 430.697 21.274 430.697 24.079V407.096C430.697 409.901 432.971 412.175 435.776 412.175H867.003C869.808 412.175 872.082 409.901 872.082 407.096V24.079C872.082 21.274 869.808 19 867.003 19Z" fill="#407BFF"/>
<path opacity="0.6" d="M430.697 54.1232V407.116C430.592 408.328 430.96 409.533 431.723 410.48C432.487 411.427 433.587 412.041 434.793 412.195H867.863C869.092 412.071 870.223 411.469 871.012 410.519C871.801 409.569 872.185 408.347 872.082 407.116V54.1232H430.697Z" fill="white"/>
<path d="M866.839 74.8285H435.92V386.677H866.839V74.8285Z" fill="white"/>
<path opacity="0.6" d="M857.664 43.2892C861.239 43.2892 864.136 39.7958 864.136 35.4864C864.136 31.177 861.239 27.6835 857.664 27.6835C854.09 27.6835 851.193 31.177 851.193 35.4864C851.193 39.7958 854.09 43.2892 857.664 43.2892Z" fill="white"/>
<path opacity="0.6" d="M836.468 43.2892C840.042 43.2892 842.939 39.7958 842.939 35.4864C842.939 31.177 840.042 27.6835 836.468 27.6835C832.893 27.6835 829.996 31.177 829.996 35.4864C829.996 39.7958 832.893 43.2892 836.468 43.2892Z" fill="white"/>
<path opacity="0.6" d="M821.722 35.4864C821.722 39.7872 818.834 43.2688 815.25 43.2688C811.666 43.2688 808.799 39.7872 808.799 35.4864C808.799 31.1856 811.687 27.6835 815.25 27.6835C818.814 27.6835 821.722 31.1651 821.722 35.4864Z" fill="white"/>
<path d="M527.731 111.242V191.667L507.047 216.612H461.233V111.242H527.731Z" fill="#407BFF"/>
<path opacity="0.7" d="M527.731 111.242V191.667L507.047 216.612H461.233V111.242H527.731Z" fill="white"/>
<path opacity="0.3" d="M527.731 191.667L507.047 216.611V191.667H527.731Z" fill="#407BFF"/>
<path opacity="0.3" d="M517.43 126.438H471.555V129.449H517.43V126.438Z" fill="#407BFF"/>
<path opacity="0.3" d="M517.43 137.866H471.555V140.877H517.43V137.866Z" fill="#407BFF"/>
<path opacity="0.3" d="M517.43 149.314H471.555V152.345H517.43V149.314Z" fill="#407BFF"/>
<path opacity="0.3" d="M517.43 160.763H471.555V163.773H517.43V160.763Z" fill="#407BFF"/>
<path opacity="0.3" d="M505.572 172.211H471.555V175.242H505.572V172.211Z" fill="#407BFF"/>
<path d="M633.203 111.242V191.667L612.519 216.612H566.705V111.242H633.203Z" fill="#407BFF"/>
<path opacity="0.7" d="M633.203 111.242V191.667L612.519 216.612H566.705V111.242H633.203Z" fill="white"/>
<path opacity="0.3" d="M633.204 191.667L612.519 216.611V191.667H633.204Z" fill="#407BFF"/>
<path opacity="0.3" d="M622.882 126.438H577.006V129.449H622.882V126.438Z" fill="#407BFF"/>
<path opacity="0.3" d="M622.882 137.866H577.006V140.877H622.882V137.866Z" fill="#407BFF"/>
<path opacity="0.3" d="M622.882 149.314H577.006V152.345H622.882V149.314Z" fill="#407BFF"/>
<path opacity="0.3" d="M622.882 160.763H577.006V163.773H622.882V160.763Z" fill="#407BFF"/>
<path opacity="0.3" d="M611.024 172.211H577.006V175.242H611.024V172.211Z" fill="#407BFF"/>
<path d="M738.676 111.242V191.667L717.991 216.612H672.177V111.242H738.676Z" fill="#407BFF"/>
<path opacity="0.7" d="M738.676 111.242V191.667L717.991 216.612H672.177V111.242H738.676Z" fill="white"/>
<path opacity="0.3" d="M738.675 191.667L717.991 216.611V191.667H738.675Z" fill="#407BFF"/>
<path opacity="0.3" d="M728.354 126.438H682.478V129.449H728.354V126.438Z" fill="#407BFF"/>
<path opacity="0.3" d="M728.354 137.866H682.478V140.877H728.354V137.866Z" fill="#407BFF"/>
<path opacity="0.3" d="M728.354 149.314H682.478V152.345H728.354V149.314Z" fill="#407BFF"/>
<path opacity="0.3" d="M728.354 160.763H682.478V163.773H728.354V160.763Z" fill="#407BFF"/>
<path opacity="0.3" d="M716.496 172.211H682.478V175.242H716.496V172.211Z" fill="#407BFF"/>
<path d="M844.147 111.242V191.667L823.442 216.612H777.649V111.242H844.147Z" fill="#407BFF"/>
<path opacity="0.7" d="M844.147 111.242V191.667L823.442 216.612H777.649V111.242H844.147Z" fill="white"/>
<path opacity="0.3" d="M844.148 191.667L823.442 216.611V191.667H844.148Z" fill="#407BFF"/>
<path opacity="0.3" d="M833.826 126.438H787.95V129.449H833.826V126.438Z" fill="#407BFF"/>
<path opacity="0.3" d="M833.826 137.866H787.95V140.877H833.826V137.866Z" fill="#407BFF"/>
<path opacity="0.3" d="M833.826 149.314H787.95V152.345H833.826V149.314Z" fill="#407BFF"/>
<path opacity="0.3" d="M833.826 160.763H787.95V163.773H833.826V160.763Z" fill="#407BFF"/>
<path opacity="0.3" d="M821.968 172.211H787.95V175.242H821.968V172.211Z" fill="#407BFF"/>
<path d="M527.731 250.506V330.931L507.047 355.875H461.233V250.506H527.731Z" fill="#407BFF"/>
<path opacity="0.7" d="M527.731 250.506V330.931L507.047 355.875H461.233V250.506H527.731Z" fill="white"/>
<path opacity="0.3" d="M527.731 330.931L507.047 355.876V330.931H527.731Z" fill="#407BFF"/>
<path opacity="0.3" d="M517.43 265.702H471.555V268.713H517.43V265.702Z" fill="#407BFF"/>
<path opacity="0.3" d="M517.43 277.13H471.555V280.14H517.43V277.13Z" fill="#407BFF"/>
<path opacity="0.3" d="M517.43 288.578H471.555V291.609H517.43V288.578Z" fill="#407BFF"/>
<path opacity="0.3" d="M517.43 300.027H471.555V303.058H517.43V300.027Z" fill="#407BFF"/>
<path opacity="0.3" d="M505.572 311.475H471.555V314.485H505.572V311.475Z" fill="#407BFF"/>
<path d="M633.203 250.506V330.931L612.519 355.875H566.705V250.506H633.203Z" fill="#407BFF"/>
<path opacity="0.7" d="M633.203 250.506V330.931L612.519 355.875H566.705V250.506H633.203Z" fill="white"/>
<path opacity="0.3" d="M633.204 330.931L612.519 355.876V330.931H633.204Z" fill="#407BFF"/>
<path opacity="0.3" d="M622.882 265.702H577.006V268.713H622.882V265.702Z" fill="#407BFF"/>
<path opacity="0.3" d="M622.882 277.13H577.006V280.14H622.882V277.13Z" fill="#407BFF"/>
<path opacity="0.3" d="M622.882 288.578H577.006V291.609H622.882V288.578Z" fill="#407BFF"/>
<path opacity="0.3" d="M622.882 300.027H577.006V303.058H622.882V300.027Z" fill="#407BFF"/>
<path opacity="0.3" d="M611.024 311.475H577.006V314.485H611.024V311.475Z" fill="#407BFF"/>
<path d="M738.676 250.506V330.931L717.991 355.875H672.177V250.506H738.676Z" fill="#407BFF"/>
<path opacity="0.7" d="M738.676 250.506V330.931L717.991 355.875H672.177V250.506H738.676Z" fill="white"/>
<path opacity="0.3" d="M738.675 330.931L717.991 355.876V330.931H738.675Z" fill="#407BFF"/>
<path opacity="0.3" d="M728.354 265.702H682.478V268.713H728.354V265.702Z" fill="#407BFF"/>
<path opacity="0.3" d="M728.354 277.13H682.478V280.14H728.354V277.13Z" fill="#407BFF"/>
<path opacity="0.3" d="M728.354 288.578H682.478V291.609H728.354V288.578Z" fill="#407BFF"/>
<path opacity="0.3" d="M728.354 300.027H682.478V303.058H728.354V300.027Z" fill="#407BFF"/>
<path opacity="0.3" d="M716.496 311.475H682.478V314.485H716.496V311.475Z" fill="#407BFF"/>
<path d="M844.147 250.506V330.931L823.442 355.875H777.649V250.506H844.147Z" fill="#407BFF"/>
<path opacity="0.7" d="M844.147 250.506V330.931L823.442 355.875H777.649V250.506H844.147Z" fill="white"/>
<path opacity="0.3" d="M844.148 330.931L823.442 355.876V330.931H844.148Z" fill="#407BFF"/>
<path opacity="0.3" d="M833.826 265.702H787.95V268.713H833.826V265.702Z" fill="#407BFF"/>
<path opacity="0.3" d="M833.826 277.13H787.95V280.14H833.826V277.13Z" fill="#407BFF"/>
<path opacity="0.3" d="M833.826 288.578H787.95V291.609H833.826V288.578Z" fill="#407BFF"/>
<path opacity="0.3" d="M833.826 300.027H787.95V303.058H833.826V300.027Z" fill="#407BFF"/>
<path opacity="0.3" d="M821.968 311.475H787.95V314.485H821.968V311.475Z" fill="#407BFF"/>
<path opacity="0.1" d="M680.758 183.864H574.61C569.69 183.864 565.701 187.853 565.701 192.773V272.317C565.701 277.237 569.69 281.226 574.61 281.226H680.758C685.678 281.226 689.667 277.237 689.667 272.317V192.773C689.667 187.853 685.678 183.864 680.758 183.864Z" fill="black"/>
<g opacity="0.1">
<path d="M673.16 179.338H660.872V166.046C660.872 157.649 657.536 149.596 651.598 143.658C645.661 137.72 637.607 134.384 629.21 134.384C620.813 134.384 612.759 137.72 606.821 143.658C600.884 149.596 597.548 157.649 597.548 166.046V179.338H585.26V166.046C585.26 154.39 589.89 143.211 598.132 134.969C606.375 126.727 617.554 122.096 629.21 122.096C640.866 122.096 652.045 126.727 660.287 134.969C668.529 143.211 673.16 154.39 673.16 166.046V179.338Z" fill="black"/>
</g>
<path d="M629.558 179.768H523.41C518.49 179.768 514.501 183.757 514.501 188.677V268.221C514.501 273.141 518.49 277.13 523.41 277.13H629.558C634.478 277.13 638.467 273.141 638.467 268.221V188.677C638.467 183.757 634.478 179.768 629.558 179.768Z" fill="#263238"/>
<path opacity="0.2" d="M607.133 179.768H523.41C518.49 179.768 514.501 183.757 514.501 188.677V268.221C514.501 273.141 518.49 277.13 523.41 277.13H607.133C612.053 277.13 616.041 273.141 616.041 268.221V188.677C616.041 183.757 612.053 179.768 607.133 179.768Z" fill="white"/>
<path d="M571.497 216.304C571.497 209.587 567.401 204.139 562.363 204.139C557.325 204.139 553.25 209.587 553.25 216.304C553.128 218.518 553.592 220.725 554.595 222.703C555.599 224.68 557.105 226.359 558.964 227.568L557.264 252.964H567.504L565.824 227.568C567.672 226.351 569.168 224.67 570.164 222.693C571.159 220.717 571.619 218.514 571.497 216.304Z" fill="#263238"/>
<path d="M621.96 175.242H609.672V161.95C609.672 153.553 606.336 145.5 600.398 139.562C594.461 133.624 586.407 130.288 578.01 130.288C569.613 130.288 561.559 133.624 555.621 139.562C549.684 145.5 546.348 153.553 546.348 161.95V175.242H534.06V161.95C534.06 150.294 538.69 139.115 546.933 130.873C555.175 122.631 566.354 118 578.01 118C589.666 118 600.845 122.631 609.087 130.873C617.33 139.115 621.96 150.294 621.96 161.95V175.242Z" fill="#263238"/>
<g opacity="0.4">
<path d="M621.96 175.242H609.672V161.95C609.672 153.553 606.336 145.5 600.398 139.562C594.461 133.624 586.407 130.288 578.01 130.288C569.613 130.288 561.559 133.624 555.621 139.562C549.684 145.5 546.348 153.553 546.348 161.95V175.242H534.06V161.95C534.06 150.294 538.69 139.115 546.933 130.873C555.175 122.631 566.354 118 578.01 118C589.666 118 600.845 122.631 609.087 130.873C617.33 139.115 621.96 150.294 621.96 161.95V175.242Z" fill="white"/>
</g>
<path opacity="0.2" d="M621.96 161.95V175.242H613.625V160.435C613.625 155.162 612.586 149.94 610.567 145.069C608.549 140.197 605.59 135.771 601.86 132.044C598.131 128.316 593.703 125.36 588.831 123.344C583.958 121.328 578.736 120.291 573.463 120.294C565.405 120.269 557.536 122.737 550.935 127.36C557.418 122.276 565.2 119.119 573.391 118.249C581.583 117.378 589.855 118.83 597.261 122.438C604.667 126.046 610.908 131.664 615.272 138.651C619.636 145.639 621.947 153.712 621.939 161.95H621.96Z" fill="white"/>
<path d="M448.31 397.43H398.667V395.525H409.869C410.623 395.518 411.35 395.248 411.926 394.762C412.502 394.276 412.89 393.604 413.023 392.862L418.041 363.003L419.024 357.125H436.022L451.239 393.006C451.446 393.489 451.53 394.017 451.482 394.541C451.435 395.065 451.258 395.569 450.968 396.007C450.677 396.446 450.282 396.806 449.818 397.054C449.355 397.302 448.836 397.431 448.31 397.43Z" fill="#407BFF"/>
<path opacity="0.4" d="M448.31 397.43H398.667V395.525H409.869C410.623 395.518 411.35 395.248 411.926 394.762C412.502 394.276 412.89 393.604 413.023 392.862L418.041 363.003L419.024 357.125H436.022L451.239 393.006C451.446 393.489 451.53 394.017 451.482 394.541C451.435 395.065 451.258 395.569 450.968 396.007C450.677 396.446 450.282 396.806 449.818 397.054C449.355 397.302 448.836 397.431 448.31 397.43Z" fill="white"/>
<path opacity="0.2" d="M448.372 395.525H409.869C410.623 395.518 411.35 395.248 411.926 394.762C412.501 394.276 412.89 393.604 413.023 392.862L418.041 363.003H435.858L449.416 393.948C449.491 394.12 449.522 394.309 449.506 394.496C449.49 394.683 449.427 394.864 449.323 395.02C449.219 395.177 449.077 395.306 448.911 395.394C448.745 395.482 448.56 395.527 448.372 395.525Z" fill="black"/>
<path d="M474.996 368.123H375.688C375.462 368.132 375.237 368.089 375.031 367.997C374.825 367.905 374.643 367.766 374.5 367.591C374.356 367.416 374.256 367.21 374.206 366.989C374.157 366.769 374.159 366.54 374.214 366.32L388.345 291.691C388.448 291.211 388.703 290.777 389.072 290.453C389.44 290.128 389.903 289.931 390.393 289.889H489.68C489.905 289.878 490.13 289.921 490.336 290.013C490.542 290.105 490.723 290.245 490.865 290.421C491.006 290.596 491.105 290.803 491.151 291.024C491.198 291.245 491.192 291.473 491.134 291.691L477.044 366.3C476.944 366.784 476.691 367.222 476.322 367.551C475.953 367.879 475.488 368.08 474.996 368.123Z" fill="#407BFF"/>
<path opacity="0.4" d="M474.996 368.123H375.688C375.462 368.132 375.237 368.089 375.031 367.997C374.825 367.905 374.643 367.766 374.5 367.591C374.356 367.416 374.256 367.21 374.206 366.989C374.157 366.769 374.159 366.54 374.214 366.32L388.345 291.691C388.448 291.211 388.703 290.777 389.072 290.453C389.44 290.128 389.903 289.931 390.393 289.889H489.68C489.905 289.878 490.13 289.921 490.336 290.013C490.542 290.105 490.723 290.245 490.865 290.421C491.006 290.596 491.105 290.803 491.151 291.024C491.198 291.245 491.192 291.473 491.134 291.691L477.044 366.3C476.944 366.784 476.691 367.222 476.322 367.551C475.953 367.879 475.488 368.08 474.996 368.123Z" fill="white"/>
<path d="M472.948 368.123H373.64C373.414 368.132 373.189 368.089 372.983 367.997C372.777 367.905 372.595 367.766 372.452 367.591C372.308 367.416 372.208 367.21 372.158 366.989C372.109 366.769 372.111 366.54 372.165 366.32L386.297 291.691C386.4 291.211 386.655 290.777 387.024 290.453C387.392 290.128 387.855 289.931 388.345 289.889H487.632C487.857 289.878 488.082 289.921 488.288 290.013C488.494 290.105 488.675 290.245 488.817 290.421C488.958 290.596 489.057 290.803 489.103 291.024C489.15 291.245 489.144 291.473 489.086 291.691L474.996 366.3C474.896 366.784 474.643 367.222 474.274 367.551C473.905 367.879 473.44 368.08 472.948 368.123Z" fill="#263238"/>
<path d="M471.637 363.535H376.692L389.758 294.497H484.683L471.637 363.535Z" fill="#407BFF"/>
<path d="M306.158 397.429V395.095L344.374 387.374H419.147C420.477 387.374 421.754 387.902 422.695 388.843C423.636 389.784 424.164 391.061 424.164 392.391C424.164 393.724 423.636 395.002 422.696 395.947C421.755 396.891 420.479 397.424 419.147 397.429H306.158Z" fill="#407BFF"/>
<path opacity="0.4" d="M424.164 392.412C424.167 393.739 423.644 395.013 422.71 395.955C421.762 396.896 420.482 397.426 419.147 397.429H306.158V395.115L344.395 387.374H419.147C419.807 387.374 420.461 387.504 421.072 387.758C421.682 388.011 422.236 388.383 422.702 388.851C423.168 389.319 423.537 389.874 423.788 390.485C424.039 391.097 424.167 391.751 424.164 392.412Z" fill="white"/>
<path opacity="0.4" d="M424.164 392.412C424.167 393.739 423.644 395.013 422.71 395.955C421.762 396.896 420.482 397.426 419.147 397.429H373.742V395.115L411.979 387.374H419.147C419.807 387.374 420.461 387.504 421.071 387.758C421.682 388.011 422.236 388.383 422.702 388.851C423.168 389.319 423.537 389.874 423.788 390.485C424.039 391.097 424.167 391.751 424.164 392.412Z" fill="white"/>
<path d="M451.485 665.287H461.725L480.095 409.41H466.517L451.485 665.287Z" fill="#263238"/>
<path opacity="0.1" d="M451.485 665.287H461.725L479.194 422.108L480.095 409.82H466.517L465.8 422.108L451.485 665.287Z" fill="white"/>
<path opacity="0.2" d="M465.8 421.493H479.194L480.095 409.82H466.517L465.8 421.493Z" fill="black"/>
<path d="M376.425 665.287H386.645L388.324 409.41H374.746L376.425 665.287Z" fill="#263238"/>
<path opacity="0.1" d="M374.746 409.82L375.012 451.108L376.405 665.287H386.645L388.038 451.108L388.304 409.82H374.746Z" fill="white"/>
<path opacity="0.2" d="M374.746 409.82L375.012 451.558H388.038L388.304 409.82H374.746Z" fill="black"/>
<path d="M267.82 665.287H278.039L296.43 409.41H282.852L267.82 665.287Z" fill="#263238"/>
<path opacity="0.1" d="M267.8 665.287H278.04L295.529 422.108L296.431 409.82H282.852L282.115 422.108L267.8 665.287Z" fill="white"/>
<path opacity="0.2" d="M282.115 421.493H295.529L296.431 409.82H282.852L282.115 421.493Z" fill="black"/>
<path d="M568.507 665.287H578.727L563.694 409.41H550.137L568.507 665.287Z" fill="#263238"/>
<path opacity="0.1" d="M550.137 409.82L551.038 422.108L568.507 665.287H578.727L564.432 422.108L563.694 409.82H550.137Z" fill="white"/>
<path opacity="0.2" d="M563.694 409.82H550.137L551.038 421.493H564.432L563.694 409.82Z" fill="black"/>
<path d="M570.023 415.8L276.524 415.8C275.943 415.8 275.368 415.686 274.831 415.463C274.294 415.241 273.807 414.915 273.396 414.504C272.985 414.094 272.659 413.606 272.437 413.069C272.215 412.533 272.1 411.957 272.1 411.376V402.98L574.447 402.98V411.376C574.447 411.957 574.332 412.533 574.11 413.069C573.887 413.606 573.562 414.094 573.151 414.504C572.74 414.915 572.252 415.241 571.716 415.463C571.179 415.686 570.604 415.8 570.023 415.8Z" fill="#407BFF"/>
<path opacity="0.4" d="M570.023 415.8L276.524 415.8C275.943 415.8 275.368 415.686 274.831 415.463C274.294 415.241 273.807 414.915 273.396 414.504C272.985 414.094 272.659 413.606 272.437 413.069C272.215 412.533 272.1 411.957 272.1 411.376V402.98L574.447 402.98V411.376C574.447 411.957 574.332 412.533 574.11 413.069C573.887 413.606 573.562 414.094 573.151 414.504C572.74 414.915 572.252 415.241 571.716 415.463C571.179 415.686 570.604 415.8 570.023 415.8Z" fill="white"/>
<path opacity="0.2" d="M272.08 409.39L574.447 409.39V402.98L272.08 402.98V409.39Z" fill="black"/>
<path d="M265.751 404.659H580.795C581.751 404.659 582.668 404.279 583.344 403.603C584.02 402.927 584.4 402.01 584.4 401.054C584.4 400.098 584.02 399.182 583.344 398.506C582.668 397.83 581.751 397.45 580.795 397.45H265.751C264.795 397.45 263.879 397.83 263.203 398.506C262.527 399.182 262.147 400.098 262.147 401.054C262.147 402.01 262.527 402.927 263.203 403.603C263.879 404.279 264.795 404.659 265.751 404.659Z" fill="#407BFF"/>
<path opacity="0.4" d="M265.751 404.659H580.795C581.751 404.659 582.668 404.279 583.344 403.603C584.02 402.927 584.4 402.01 584.4 401.054C584.4 400.098 584.02 399.182 583.344 398.506C582.668 397.83 581.751 397.45 580.795 397.45H265.751C264.795 397.45 263.879 397.83 263.203 398.506C262.527 399.182 262.147 400.098 262.147 401.054C262.147 402.01 262.527 402.927 263.203 403.603C263.879 404.279 264.795 404.659 265.751 404.659Z" fill="white"/>
<path opacity="0.3" d="M395.021 333.184C394.572 333.18 394.128 333.077 393.723 332.883C393.317 332.689 392.959 332.408 392.674 332.06C392.389 331.712 392.183 331.306 392.072 330.871C391.961 330.435 391.947 329.98 392.031 329.538L393.301 323.005C393.48 322.114 393.96 321.312 394.662 320.734C395.363 320.155 396.242 319.837 397.151 319.831H450.399C450.851 319.83 451.297 319.93 451.705 320.125C452.113 320.32 452.471 320.605 452.754 320.957C453.045 321.301 453.254 321.706 453.364 322.143C453.474 322.58 453.483 323.036 453.389 323.476L452.119 330.009C451.948 330.901 451.473 331.705 450.774 332.284C450.075 332.863 449.197 333.181 448.29 333.184H395.021Z" fill="white"/>
<path d="M448.29 332.16H395.042C394.739 332.165 394.438 332.102 394.162 331.977C393.886 331.852 393.642 331.667 393.446 331.436C393.25 331.205 393.108 330.933 393.03 330.64C392.951 330.348 392.939 330.041 392.994 329.743L394.284 323.189C394.408 322.532 394.759 321.938 395.275 321.511C395.791 321.085 396.441 320.853 397.11 320.855H450.358C450.661 320.85 450.961 320.912 451.237 321.037C451.513 321.162 451.758 321.347 451.954 321.578C452.15 321.81 452.292 322.081 452.37 322.374C452.449 322.667 452.461 322.973 452.406 323.271L451.136 329.825C451.008 330.485 450.653 331.079 450.133 331.505C449.614 331.931 448.962 332.163 448.29 332.16Z" fill="white"/>
<path d="M404.047 328.031C405.091 326.538 404.976 324.656 403.789 323.826C402.603 322.996 400.795 323.533 399.751 325.026C398.707 326.518 398.823 328.4 400.009 329.23C401.196 330.06 403.004 329.523 404.047 328.031Z" fill="#263238"/>
<path d="M413.023 326.507C412.877 327.326 412.464 328.072 411.849 328.632C411.234 329.191 410.452 329.531 409.623 329.6C409.256 329.588 408.897 329.492 408.573 329.318C408.25 329.145 407.971 328.898 407.758 328.599C407.546 328.299 407.406 327.954 407.349 327.591C407.293 327.228 407.321 326.857 407.432 326.507C407.582 325.69 407.995 324.945 408.61 324.387C409.224 323.828 410.005 323.487 410.832 323.415C411.2 323.422 411.562 323.515 411.888 323.688C412.214 323.86 412.495 324.107 412.708 324.408C412.921 324.709 413.061 325.055 413.116 325.42C413.17 325.785 413.139 326.157 413.023 326.507Z" fill="#263238"/>
<path d="M421.358 326.507C421.209 327.324 420.795 328.069 420.181 328.628C419.567 329.187 418.786 329.528 417.959 329.6C417.59 329.592 417.228 329.498 416.902 329.325C416.576 329.153 416.294 328.907 416.079 328.607C415.865 328.307 415.723 327.961 415.665 327.596C415.608 327.232 415.635 326.859 415.747 326.507C415.901 325.689 416.318 324.943 416.936 324.385C417.554 323.826 418.337 323.486 419.167 323.415C419.534 323.426 419.894 323.522 420.217 323.696C420.541 323.87 420.82 324.116 421.032 324.416C421.245 324.715 421.384 325.06 421.441 325.423C421.498 325.786 421.469 326.157 421.358 326.507Z" fill="#263238"/>
<path d="M429.038 328.016C430.082 326.523 429.966 324.641 428.78 323.811C427.593 322.981 425.786 323.518 424.742 325.011C423.698 326.503 423.814 328.385 425 329.215C426.187 330.045 427.994 329.508 429.038 328.016Z" fill="#263238"/>
<path d="M438.009 326.507C437.855 327.326 437.437 328.071 436.82 328.63C436.202 329.188 435.418 329.529 434.589 329.6C434.221 329.588 433.862 329.492 433.538 329.318C433.215 329.145 432.936 328.898 432.723 328.599C432.511 328.299 432.371 327.954 432.315 327.591C432.258 327.228 432.286 326.857 432.397 326.507C432.55 325.692 432.965 324.949 433.578 324.391C434.192 323.832 434.971 323.49 435.797 323.415C436.166 323.423 436.528 323.517 436.854 323.689C437.18 323.862 437.462 324.108 437.676 324.408C437.891 324.708 438.033 325.054 438.09 325.418C438.148 325.783 438.12 326.156 438.009 326.507Z" fill="#263238"/>
<path d="M445.676 328.048C446.72 326.556 446.604 324.674 445.418 323.844C444.231 323.014 442.423 323.551 441.38 325.043C440.336 326.536 440.452 328.418 441.638 329.248C442.824 330.078 444.632 329.541 445.676 328.048Z" fill="#263238"/>
<path opacity="0.3" d="M455.724 333.184C455.38 333.188 455.039 333.115 454.727 332.969C454.415 332.824 454.14 332.61 453.922 332.344C453.689 332.063 453.525 331.732 453.443 331.376C453.361 331.02 453.364 330.651 453.451 330.296L455.069 322.104C455.211 321.433 455.576 320.829 456.103 320.391C456.631 319.953 457.291 319.705 457.977 319.687H466.169C466.513 319.683 466.854 319.756 467.166 319.902C467.478 320.047 467.753 320.261 467.971 320.527C468.204 320.808 468.368 321.139 468.45 321.495C468.532 321.851 468.529 322.221 468.442 322.575L466.824 330.767C466.682 331.438 466.317 332.042 465.789 332.48C465.262 332.919 464.602 333.166 463.916 333.184H455.724Z" fill="white"/>
<path d="M455.724 332.16H463.916C464.356 332.137 464.776 331.974 465.116 331.693C465.455 331.413 465.695 331.031 465.8 330.603L467.418 322.411C467.469 322.22 467.475 322.019 467.435 321.824C467.394 321.63 467.309 321.448 467.185 321.293C467.062 321.137 466.904 321.013 466.724 320.93C466.544 320.847 466.347 320.807 466.148 320.814H457.956C457.508 320.834 457.078 321.002 456.734 321.29C456.39 321.579 456.15 321.973 456.052 322.411L454.434 330.603C454.389 330.794 454.39 330.992 454.435 331.183C454.48 331.373 454.568 331.551 454.693 331.701C454.818 331.852 454.976 331.972 455.155 332.051C455.334 332.131 455.528 332.168 455.724 332.16Z" fill="#263238"/>
<path d="M459.881 330.091C459.82 330.094 459.758 330.082 459.701 330.057C459.644 330.032 459.594 329.995 459.554 329.948C459.48 329.83 459.455 329.688 459.481 329.551C459.508 329.415 459.585 329.293 459.697 329.211L462.953 326.507L460.783 323.804C460.704 323.687 460.675 323.544 460.702 323.406C460.729 323.268 460.809 323.146 460.926 323.067C461.024 322.977 461.152 322.928 461.284 322.928C461.417 322.928 461.545 322.977 461.643 323.067L464.1 326.139C464.179 326.256 464.208 326.399 464.181 326.537C464.154 326.675 464.074 326.797 463.957 326.876L460.291 329.948C460.176 330.042 460.031 330.093 459.881 330.091Z" fill="#407BFF"/>
<path d="M463.568 327.019H458.038C457.975 327.021 457.911 327.008 457.854 326.982C457.796 326.955 457.745 326.915 457.705 326.866C457.666 326.816 457.638 326.758 457.625 326.696C457.611 326.633 457.613 326.569 457.629 326.507C457.66 326.366 457.737 326.239 457.849 326.147C457.96 326.054 458.098 326.001 458.243 325.995H463.752C463.816 325.993 463.879 326.006 463.937 326.033C463.994 326.059 464.045 326.099 464.085 326.149C464.125 326.198 464.152 326.257 464.166 326.319C464.179 326.381 464.178 326.446 464.162 326.507C464.131 326.645 464.057 326.77 463.95 326.862C463.843 326.954 463.709 327.009 463.568 327.019Z" fill="#407BFF"/>
<path d="M284.081 201.989H328.236C332.896 201.989 336.674 198.211 336.674 193.551V149.396C336.674 144.736 332.896 140.958 328.236 140.958H284.081C279.421 140.958 275.643 144.736 275.643 149.396V193.551C275.643 198.211 279.421 201.989 284.081 201.989Z" fill="#407BFF"/>
<path d="M301.386 199.695L306.158 220.216L310.93 199.695H301.386Z" fill="#407BFF"/>
<path opacity="0.3" d="M305.626 189.762C300.432 186.666 296.096 182.319 293.012 177.118C289.929 171.917 288.196 166.027 287.972 159.984V159.329L306.138 151.588L324.283 159.329V159.984C324.072 166.027 322.347 171.921 319.266 177.124C316.185 182.326 311.847 186.672 306.65 189.762L306.117 190.09L305.626 189.762Z" fill="white"/>
<path opacity="0.6" d="M306.158 152.714L323.3 160.005C323.113 165.876 321.443 171.605 318.446 176.658C315.448 181.711 311.221 185.923 306.158 188.902V152.714Z" fill="white"/>
<path opacity="0.4" d="M306.158 152.714L288.996 160.005C289.185 165.878 290.858 171.609 293.859 176.661C296.86 181.714 301.091 185.925 306.158 188.902V152.714Z" fill="white"/>
<path d="M308.899 386.243L323.235 388.393C326.49 387.359 329.837 386.639 333.229 386.243C336.91 385.94 340.608 385.94 344.289 386.243C344.289 386.243 350.781 388.68 350.781 394.886C350.781 394.886 335.646 398.982 329.85 396.503L308.899 394.886V386.243Z" fill="#E4897B"/>
<path opacity="0.2" d="M308.899 386.243L323.235 388.393C326.49 387.359 329.837 386.639 333.229 386.243C336.91 385.94 340.608 385.94 344.289 386.243C344.289 386.243 350.781 388.68 350.781 394.886C350.781 394.886 335.646 398.982 329.85 396.503L308.899 394.886V386.243Z" fill="black"/>
<path d="M344.412 289.434C344.635 292.38 345.212 295.289 346.132 298.097C345.38 298.559 344.515 298.804 343.633 298.804C342.751 298.804 341.886 298.559 341.135 298.097L344.412 289.434Z" fill="#AA473D"/>
<path d="M350.003 285.338C349.45 286.669 348.467 287.529 347.791 287.243C347.115 286.956 347.053 285.686 347.586 284.355C348.118 283.024 349.122 282.184 349.798 282.45C350.474 282.717 350.535 284.027 350.003 285.338Z" fill="#263238"/>
<path d="M353.361 280.751C353.241 280.787 353.113 280.787 352.993 280.751C351.904 280.111 350.686 279.723 349.427 279.617C348.169 279.511 346.903 279.688 345.722 280.136C345.546 280.226 345.341 280.242 345.153 280.18C344.964 280.119 344.808 279.985 344.719 279.809C344.629 279.632 344.613 279.427 344.675 279.239C344.736 279.051 344.87 278.895 345.046 278.805C346.45 278.233 347.967 277.997 349.478 278.114C350.989 278.231 352.452 278.699 353.75 279.481C353.835 279.531 353.908 279.598 353.966 279.677C354.024 279.756 354.066 279.846 354.088 279.941C354.111 280.037 354.115 280.136 354.099 280.232C354.083 280.329 354.048 280.422 353.996 280.505C353.92 280.597 353.822 280.668 353.711 280.711C353.6 280.754 353.479 280.767 353.361 280.751Z" fill="#263238"/>
<path d="M340.418 300.575C339.947 301.149 339.476 301.702 338.964 302.214C336.096 305.194 332.388 307.23 328.335 308.05C327.308 308.259 326.268 308.395 325.222 308.46C322.467 308.632 319.709 308.188 317.148 307.161C314.587 306.134 312.287 304.548 310.415 302.521C308.725 300.686 307.429 298.526 306.605 296.172C302.939 286.342 306.605 278.6 311.91 264.981C313.089 261.788 315.064 258.95 317.648 256.734C320.231 254.518 323.338 252.999 326.673 252.32C330.008 251.641 333.461 251.825 336.705 252.855C339.949 253.884 342.877 255.725 345.21 258.202C355.819 269.384 348.692 289.926 340.418 300.575Z" fill="#E4897B"/>
<path opacity="0.2" d="M328.335 308.05C327.308 308.259 326.268 308.395 325.222 308.46C322.468 308.632 319.709 308.188 317.148 307.161C314.587 306.134 312.287 304.548 310.415 302.521C311.731 301.198 313.21 300.048 314.818 299.101C320.091 300.721 324.784 303.829 328.335 308.05Z" fill="black"/>
<path d="M284.18 308.562C285.532 318.147 306.503 321.731 306.503 321.731C306.503 321.731 316.743 326.441 317.276 322.345C312.995 317.389 312.524 313.068 313.999 309.279C314.977 306.968 316.412 304.878 318.218 303.135C319.18 302.136 320.199 301.192 321.269 300.309L314.859 274.054C310.251 284.089 294.563 307.129 284.18 308.562Z" fill="#E4897B"/>
<path d="M344.023 250.85C344.023 250.85 348.508 250.297 351.948 258.653C354.836 265.677 348.016 267.213 348.323 274.688C348.631 282.164 341.77 286.321 341.77 286.321C341.77 286.321 336.035 291.277 331.141 288.594C331.141 288.594 324.751 291.728 323.071 297.196C321.392 302.664 311.5 292.793 302.591 294.288C302.591 294.288 296.57 288.656 297.021 274.975C297.362 269.035 298.821 263.212 301.322 257.813C302.503 254.954 304.241 252.359 306.435 250.179C308.629 247.999 311.235 246.278 314.101 245.115C324.28 240.487 342.118 243.927 344.023 250.85Z" fill="#263238"/>
<path d="M329.912 284.478C329.602 285.841 329.6 287.255 329.904 288.619C330.209 289.982 330.813 291.261 331.673 292.363C333.844 294.738 337.346 291.728 338.759 287.57C339.988 283.864 340.418 278.068 337.223 277.33C334.028 276.593 330.588 280.484 329.912 284.478Z" fill="#E4897B"/>
<path d="M332.164 316.488C329.229 324.68 326.608 332.531 324.3 340.04C322.826 344.71 321.474 349.277 320.204 353.68C319.166 357.38 318.197 360.971 317.296 364.452C316.866 366.132 316.436 367.791 316.026 369.429C313.773 378.461 311.93 386.694 310.517 394.005C308.13 405.418 306.36 416.951 305.213 428.555L224.931 418.438C227.716 404.634 229.887 392.571 232.918 379.526C234.598 372.399 236.502 364.985 239.062 356.854C240.783 351.017 242.79 344.812 245.206 338.074C253.275 314.932 260.71 308.521 260.71 308.521C291.409 303.606 332.164 316.488 332.164 316.488Z" fill="#263238"/>
<path d="M358.891 387.738L373.227 389.889C376.482 388.854 379.829 388.134 383.221 387.738C386.908 387.436 390.614 387.436 394.301 387.738C394.301 387.738 400.772 390.175 400.772 396.381C400.772 396.381 385.658 400.477 379.842 397.999L358.911 396.381L358.891 387.738Z" fill="#E4897B"/>
<path d="M270.151 652.483L285.122 652.749L292.577 618.24L277.626 617.974L270.151 652.483Z" fill="#EBB376"/>
<path opacity="0.2" d="M277.626 617.974L292.577 618.261L288.317 637.983L273.51 637L277.626 617.974Z" fill="black"/>
<path d="M318.259 567.983C312.554 589.945 305.265 611.464 296.447 632.372L269.148 630.324C269.148 630.324 280.35 586.558 284.405 546.458C286.924 521.718 286.699 501.238 279.449 499.661C274.902 498.658 264.232 498.678 250.552 499.006V448.011C288.911 455.895 327.086 470.744 329.994 482.663C334.049 499.436 326.963 534.948 318.259 567.983Z" fill="#407BFF"/>
<path d="M266.24 631.552L298.762 633.723L303.554 619.654L267.714 617.995L266.24 631.552Z" fill="#407BFF"/>
<path opacity="0.2" d="M266.24 631.552L298.762 633.723L303.554 619.654L267.714 617.995L266.24 631.552Z" fill="white"/>
<path d="M287.375 652.012H287.682C287.682 652.012 288.03 652.114 288.071 652.155H288.194C289.459 652.556 290.764 652.817 292.085 652.934C293.07 653.117 294.087 652.919 294.932 652.381C295.2 652.147 295.395 651.841 295.493 651.5C295.591 651.158 295.588 650.796 295.485 650.455C295.452 650.233 295.366 650.022 295.234 649.84C295.102 649.658 294.928 649.511 294.727 649.411C293.313 649.185 291.864 649.46 290.631 650.189C291.512 649.26 292.035 648.048 292.106 646.769C292.045 646.467 291.889 646.192 291.661 645.985C291.432 645.779 291.143 645.652 290.836 645.622C290.254 645.536 289.66 645.675 289.177 646.011C287.6 647.363 287.354 651.602 287.354 651.848L287.375 652.012ZM288.993 651.152L288.685 651.316C288.588 649.697 289.028 648.092 289.935 646.749C290.033 646.65 290.152 646.573 290.283 646.524C290.413 646.474 290.553 646.453 290.692 646.462H290.877C291.368 646.462 291.471 646.79 291.491 646.994C291.175 648.632 290.29 650.104 288.993 651.152ZM289.197 651.889C291 650.886 293.56 649.841 294.522 650.23C294.618 650.28 294.7 650.353 294.761 650.442C294.821 650.532 294.859 650.635 294.87 650.742C294.931 650.958 294.932 651.185 294.875 651.401C294.817 651.618 294.702 651.814 294.543 651.971C293.805 652.626 291.839 652.585 289.197 651.889Z" fill="#407BFF"/>
<path d="M287.027 650.21L270.253 649.165C269.974 649.137 269.694 649.219 269.476 649.396C269.257 649.572 269.117 649.828 269.086 650.107L267.448 663.317C267.403 664.011 267.633 664.695 268.09 665.221C268.546 665.746 269.191 666.07 269.885 666.123C275.742 666.389 278.548 666.225 285.921 666.635C292.465 667.308 299.049 667.513 305.622 667.249C311.766 666.655 311.091 660.491 308.408 660.204C301.997 659.467 293.539 654.777 289.525 651.213C288.829 650.607 287.949 650.253 287.027 650.21Z" fill="#263238"/>
<path opacity="0.2" d="M318.259 567.983C308.019 561.531 296.12 553.933 284.405 546.417C286.924 521.677 286.699 501.197 279.449 499.62C274.902 498.617 264.232 498.637 250.552 498.965V448.011C288.911 455.895 327.086 470.744 329.994 482.663C334.049 499.436 326.963 534.948 318.259 567.983Z" fill="black"/>
<path d="M357.662 652.483L372.633 652.749L380.088 618.24L365.137 617.974L357.662 652.483Z" fill="#EBB376"/>
<path opacity="0.2" d="M365.137 617.974L380.088 618.261L375.828 637.983L361.021 637L365.137 617.974Z" fill="black"/>
<path d="M303.308 443.014L305.725 423.68L227.553 410.799C227.553 410.799 201.973 461.466 214.486 486.37C225.976 509.143 348.159 495.565 366.96 499.682C385.761 503.798 356.72 630.365 356.72 630.365L384.04 632.413C384.04 632.413 426.229 518.544 417.566 482.724C413.716 467.057 349.306 446.352 303.308 443.014Z" fill="#407BFF"/>
<path d="M353.75 631.552L386.273 633.723L391.065 619.654L355.225 617.995L353.75 631.552Z" fill="#407BFF"/>
<path opacity="0.2" d="M353.75 631.552L386.273 633.723L391.065 619.654L355.225 617.995L353.75 631.552Z" fill="white"/>
<path d="M374.886 652.012H375.193C375.193 652.012 375.541 652.114 375.582 652.155H375.705C376.97 652.556 378.275 652.817 379.596 652.934C380.581 653.117 381.598 652.919 382.443 652.381C382.711 652.147 382.906 651.841 383.004 651.5C383.102 651.158 383.099 650.796 382.996 650.455C382.963 650.233 382.877 650.022 382.745 649.84C382.613 649.658 382.439 649.511 382.238 649.411C380.824 649.185 379.375 649.46 378.142 650.189C379.023 649.26 379.546 648.048 379.617 646.769C379.556 646.467 379.4 646.192 379.172 645.985C378.943 645.779 378.654 645.652 378.347 645.622C377.765 645.536 377.171 645.675 376.688 646.011C375.111 647.363 374.865 651.602 374.865 651.848L374.886 652.012ZM376.504 651.152L376.196 651.316C376.099 649.697 376.538 648.092 377.446 646.749C377.544 646.65 377.663 646.573 377.794 646.524C377.924 646.474 378.064 646.453 378.203 646.462H378.388C378.879 646.462 378.982 646.79 379.002 646.994C378.689 648.638 377.795 650.114 376.483 651.152H376.504ZM376.708 651.889C378.511 650.886 381.071 649.841 382.033 650.23C382.129 650.28 382.211 650.353 382.272 650.442C382.332 650.532 382.37 650.635 382.381 650.742C382.442 650.958 382.443 651.185 382.386 651.401C382.328 651.618 382.213 651.814 382.054 651.971C381.316 652.626 379.35 652.585 376.708 651.889Z" fill="#407BFF"/>
<path d="M374.538 650.21L357.764 649.165C357.485 649.137 357.205 649.219 356.987 649.396C356.768 649.572 356.628 649.828 356.597 650.107L354.959 663.317C354.914 664.011 355.144 664.695 355.601 665.221C356.057 665.746 356.702 666.07 357.396 666.123C363.253 666.389 366.059 666.225 373.432 666.635C379.976 667.308 386.56 667.513 393.133 667.249C399.38 666.655 398.622 660.491 395.919 660.204C389.508 659.467 381.05 654.777 377.036 651.213C376.34 650.607 375.46 650.253 374.538 650.21Z" fill="#263238"/>
<path d="M224.686 419.605L260.894 424.356L262.082 419.011L225.791 413.727L224.686 419.605Z" fill="black"/>
<path d="M265.092 419.052L264.642 424.356L298.127 428.964V423.701L265.092 419.052Z" fill="black"/>
<path d="M300.195 424.008V428.964L305.07 429.599V424.807L300.195 424.008Z" fill="black"/>
<path opacity="0.2" d="M324.3 340.04C322.826 344.71 321.474 349.277 320.204 353.68C319.167 357.38 318.197 360.971 317.296 364.452C314.777 350.731 319.344 334.347 319.344 334.347L324.3 340.04Z" fill="black"/>
<path d="M332.165 316.386C338.698 317.717 340.848 368.487 341.135 373.894C341.422 379.3 373.206 389.807 373.206 389.807V397.2C373.206 397.2 339.128 394.824 331.161 391.568C323.194 388.311 321.187 341.289 321.187 341.289L332.165 316.386Z" fill="#E4897B"/>
<path d="M332.164 316.386C338.165 318.249 341.135 351.734 341.135 351.734L322.58 359.394L317.972 340.777C317.972 340.777 316.661 336.989 319.242 329.001C322.989 317.348 332.164 316.386 332.164 316.386Z" fill="#263238"/>
<path d="M193.761 483.339H341.667C345.964 483.339 350.084 485.045 353.122 488.083C356.16 491.122 357.867 495.242 357.867 499.538V508.201H177.561V499.538C177.561 495.242 179.268 491.122 182.306 488.083C185.344 485.045 189.464 483.339 193.761 483.339Z" fill="#407BFF"/>
<path d="M241.868 421.755H341.176C342.373 421.755 343.554 422.025 344.632 422.545C345.71 423.066 346.656 423.823 347.401 424.76C348.145 425.697 348.668 426.791 348.931 427.958C349.193 429.126 349.189 430.338 348.917 431.504L331.161 508.201H327.065L342.179 440.986C342.444 439.824 342.443 438.618 342.177 437.456C341.912 436.294 341.387 435.208 340.643 434.277C339.899 433.346 338.955 432.595 337.881 432.079C336.806 431.564 335.629 431.297 334.438 431.299H243.896L241.868 421.755Z" fill="#263238"/>
<path d="M279.469 510.946V575.765C279.469 576.764 279.072 577.723 278.366 578.43C277.659 579.136 276.7 579.533 275.701 579.533H259.747C258.748 579.533 257.789 579.136 257.082 578.43C256.376 577.723 255.979 576.764 255.979 575.765V510.946H279.469Z" fill="#263238"/>
<path d="M191.733 660.573C191.733 659.212 191.329 657.881 190.573 656.75C189.817 655.618 188.742 654.736 187.485 654.215C186.228 653.694 184.844 653.558 183.509 653.824C182.174 654.089 180.948 654.744 179.986 655.707C179.024 656.669 178.368 657.895 178.103 659.23C177.837 660.565 177.973 661.949 178.494 663.206C179.015 664.463 179.897 665.538 181.029 666.294C182.16 667.05 183.491 667.454 184.852 667.454C186.677 667.454 188.427 666.729 189.718 665.438C191.008 664.148 191.733 662.398 191.733 660.573Z" fill="#263238"/>
<path opacity="0.2" d="M188.292 660.573C188.292 659.892 188.091 659.227 187.713 658.661C187.334 658.095 186.797 657.654 186.168 657.394C185.54 657.133 184.848 657.065 184.181 657.198C183.513 657.331 182.9 657.659 182.419 658.14C181.938 658.621 181.61 659.234 181.477 659.901C181.344 660.569 181.413 661.261 181.673 661.889C181.933 662.518 182.374 663.055 182.94 663.433C183.506 663.811 184.171 664.013 184.852 664.013C185.763 664.008 186.635 663.644 187.279 663C187.923 662.355 188.287 661.483 188.292 660.573Z" fill="white"/>
<path d="M357.519 660.573C357.523 659.206 357.121 657.869 356.364 656.73C355.607 655.592 354.529 654.705 353.267 654.18C352.006 653.655 350.616 653.516 349.275 653.782C347.935 654.048 346.703 654.705 345.737 655.672C344.77 656.638 344.112 657.87 343.847 659.211C343.581 660.551 343.719 661.941 344.244 663.203C344.769 664.465 345.657 665.542 346.795 666.299C347.933 667.056 349.271 667.458 350.637 667.454C352.461 667.448 354.208 666.722 355.497 665.432C356.786 664.143 357.513 662.396 357.519 660.573Z" fill="#263238"/>
<path opacity="0.2" d="M354.078 660.573C354.078 659.892 353.876 659.227 353.498 658.661C353.12 658.095 352.583 657.654 351.954 657.394C351.325 657.133 350.634 657.065 349.966 657.198C349.299 657.331 348.686 657.659 348.205 658.14C347.723 658.621 347.396 659.234 347.263 659.901C347.13 660.569 347.198 661.261 347.459 661.889C347.719 662.518 348.16 663.055 348.726 663.433C349.292 663.811 349.957 664.013 350.637 664.013C351.548 664.008 352.42 663.644 353.064 663C353.708 662.355 354.073 661.483 354.078 660.573Z" fill="white"/>
<path d="M273.428 630.344V556.247H262.041V630.344C217.681 631.491 190.709 646.994 185.323 650.394C185.005 650.582 184.744 650.853 184.567 651.177C184.39 651.502 184.305 651.868 184.319 652.237V658.381C184.317 658.668 184.371 658.953 184.479 659.218C184.586 659.484 184.746 659.726 184.948 659.93C185.15 660.133 185.39 660.295 185.655 660.405C185.919 660.516 186.203 660.573 186.49 660.573C186.873 660.569 187.249 660.465 187.58 660.271C187.91 660.077 188.184 659.8 188.374 659.467L191.016 654.838C213.999 647.509 237.922 643.55 262.041 643.083V655.371C262.041 655.741 262.114 656.107 262.256 656.449C262.399 656.791 262.607 657.101 262.87 657.362C263.133 657.623 263.444 657.829 263.787 657.969C264.13 658.109 264.497 658.179 264.867 658.177H270.622C271.366 658.177 272.08 657.881 272.606 657.355C273.132 656.829 273.428 656.115 273.428 655.371V643.083C297.553 643.548 321.483 647.508 344.473 654.838L347.094 659.467C347.286 659.803 347.563 660.082 347.898 660.276C348.232 660.471 348.612 660.573 348.999 660.573C349.577 660.567 350.129 660.334 350.535 659.924C350.942 659.513 351.17 658.959 351.17 658.381V652.237C351.184 651.868 351.099 651.502 350.922 651.177C350.745 650.853 350.484 650.582 350.166 650.394C344.76 646.994 317.808 631.491 273.428 630.344Z" fill="#263238"/>
<path d="M271.482 653.671H264.007V667.454H271.482V653.671Z" fill="#263238"/>
<path opacity="0.2" d="M279.469 510.884H256.04V537.815H279.469V510.884Z" fill="black"/>
<path d="M362.864 504.208V511.949C362.864 512.47 362.761 512.986 362.561 513.467C362.361 513.947 362.068 514.384 361.699 514.751C361.33 515.119 360.892 515.409 360.41 515.607C359.928 515.804 359.412 515.905 358.891 515.902H176.619C176.099 515.905 175.584 515.804 175.103 515.607C174.622 515.409 174.186 515.118 173.818 514.75C173.45 514.383 173.159 513.946 172.962 513.465C172.764 512.984 172.664 512.469 172.666 511.949V504.208C172.666 503.159 173.083 502.154 173.824 501.413C174.565 500.672 175.571 500.255 176.619 500.255H358.891C359.941 500.255 360.949 500.671 361.693 501.412C362.438 502.152 362.859 503.158 362.864 504.208Z" fill="#263238"/>
<path d="M278.998 508.201H172.646C172.646 508.201 138.915 452.004 138.915 359.148V325.049C138.921 318.317 141.599 311.863 146.361 307.105C151.123 302.347 157.579 299.674 164.31 299.674H209.366C215.96 299.671 222.296 302.234 227.033 306.822C231.769 311.409 234.534 317.66 234.741 324.25C236.031 372.173 243.077 475.782 278.998 508.201Z" fill="#263238"/>
<path opacity="0.2" d="M255.651 508.201H177.438C175.959 508.208 174.508 507.806 173.243 507.04C171.978 506.274 170.949 505.173 170.27 503.86C162.57 489.032 138.915 436.952 138.915 359.148V325.049C138.915 318.319 141.589 311.865 146.347 307.106C151.106 302.347 157.56 299.674 164.29 299.674H203.202C209.796 299.671 216.132 302.234 220.868 306.822C225.604 311.409 228.369 317.66 228.577 324.25C229.744 366.992 235.478 454.257 262.307 495.483C263.118 496.706 263.586 498.123 263.661 499.588C263.737 501.052 263.418 502.51 262.738 503.81C262.058 505.109 261.042 506.202 259.795 506.975C258.549 507.747 257.118 508.171 255.651 508.201Z" fill="white"/>
<path opacity="0.2" d="M362.864 504.208V511.949C362.864 512.997 362.448 514.003 361.706 514.744C360.965 515.485 359.96 515.902 358.911 515.902H277.217C276.516 515.905 275.821 515.769 275.173 515.502C274.524 515.236 273.935 514.844 273.438 514.35C272.942 513.855 272.547 513.267 272.279 512.62C272.01 511.972 271.871 511.278 271.871 510.577V505.6C271.871 504.183 272.434 502.823 273.437 501.821C274.439 500.818 275.799 500.255 277.217 500.255H358.891C359.941 500.255 360.949 500.671 361.693 501.412C362.438 502.152 362.859 503.158 362.864 504.208Z" fill="black"/>
<path d="M172.605 296.664L179.363 287.816C179.363 287.816 208.219 289.127 208.916 299.674C209.612 310.221 172.605 296.664 172.605 296.664Z" fill="#407BFF"/>
<path d="M153.64 323.144C153.64 323.144 155.402 370.043 153.64 491.08C153.64 495.176 138.362 495.012 137.256 491.08C133.59 477.297 137.256 367.238 137.256 367.238" fill="#407BFF"/>
<path d="M137.604 491.695L153.149 492.227V499.989L137.604 499.19V491.695Z" fill="#407BFF"/>
<path opacity="0.2" d="M153.64 323.144C153.64 323.144 155.402 370.043 153.64 491.08C153.64 495.176 138.362 495.012 137.256 491.08C133.59 477.297 137.256 367.238 137.256 367.238" fill="white"/>
<path d="M129.924 466.34C129.085 444.017 126.033 341.412 138.854 307.415C138.854 307.415 150.916 292.096 191.733 292.096C232.55 292.096 244.838 321.076 244.838 321.076C244.838 321.076 246.599 367.954 244.838 489.012C244.838 493.108 229.56 492.964 228.454 489.012C224.788 475.249 228.454 365.169 228.454 365.169L220.262 465.316C220.232 465.652 220.134 465.978 219.973 466.275C219.813 466.571 219.594 466.832 219.329 467.041C219.065 467.25 218.76 467.403 218.435 467.49C218.109 467.577 217.769 467.597 217.435 467.549C204.554 465.501 147.803 457.534 132.792 467.774C132.52 467.949 132.207 468.05 131.884 468.067C131.561 468.085 131.239 468.018 130.95 467.873C130.661 467.729 130.414 467.511 130.234 467.243C130.054 466.974 129.948 466.663 129.924 466.34Z" fill="#407BFF"/>
<path d="M228.802 489.626L244.346 490.159V497.92L228.802 497.122V489.626Z" fill="#407BFF"/>
<path d="M218.275 467.651L217.046 475.843C217.046 475.843 153.702 462.039 133.181 476.744L131.952 467.671C131.952 467.671 147.803 453.049 218.275 467.651Z" fill="#407BFF"/>
<path opacity="0.4" d="M129.924 466.34C129.085 444.017 126.033 341.412 138.854 307.415C138.854 307.415 150.916 292.096 191.733 292.096C232.55 292.096 244.838 321.076 244.838 321.076C244.838 321.076 246.599 367.954 244.838 489.012C244.838 493.108 229.56 492.964 228.454 489.012C224.788 475.249 228.454 365.169 228.454 365.169L220.262 465.316C220.232 465.652 220.134 465.978 219.973 466.275C219.813 466.571 219.594 466.832 219.329 467.041C219.065 467.25 218.76 467.403 218.435 467.49C218.109 467.577 217.769 467.597 217.435 467.549C204.554 465.501 147.803 457.534 132.792 467.774C132.52 467.949 132.207 468.05 131.884 468.067C131.561 468.085 131.239 468.018 130.95 467.873C130.661 467.729 130.414 467.511 130.234 467.243C130.054 466.974 129.948 466.663 129.924 466.34Z" fill="white"/>
<path opacity="0.2" d="M228.515 365.169C228.515 365.169 229.416 333.384 244.899 321.076C244.838 321.076 225.545 329.37 228.515 365.169Z" fill="black"/>
<path opacity="0.2" d="M182.067 295.762C182.067 295.762 163.43 306.002 160.46 445.533C160.46 445.533 152.35 304.774 182.067 295.762Z" fill="black"/>
</svg>
