<svg width="958" height="331" viewBox="0 0 958 331" fill="none" xmlns="http://www.w3.org/2000/svg">
<path d="M89.4524 0H240.548C289.942 0 330 40.0578 330 89.4524V240.548C330 289.942 289.942 330 240.548 330H89.4524C40.0578 330 0 289.942 0 240.548V89.4524C0 40.0578 40.0578 0 89.4524 0Z" fill="#F4F4F4"/>
<path d="M541.236 171.343H452.872V153.717H541.236V171.343ZM456.245 247.497H434.435V82.9863H456.245V247.497ZM560.348 247.497H538.538V82.9863H560.348V247.497Z" fill="#303031"/>
<path d="M669.96 125.244H690.983V247.497H670.972L669.96 219.25V125.244ZM682.664 193.263C682.664 204.109 681.128 213.789 678.055 222.3C674.982 230.812 669.96 237.516 662.99 242.412C656.02 247.308 646.689 249.757 634.997 249.757C623.08 249.757 613.449 246.216 606.104 239.136C598.759 232.055 595.087 220.38 595.087 204.109V125.244H616.11V204.335C616.11 211.717 617.159 217.442 619.258 221.51C621.431 225.502 624.204 228.289 627.577 229.871C631.025 231.377 634.622 232.13 638.37 232.13C647.214 232.13 654.221 230.436 659.393 227.046C664.564 223.581 668.274 218.911 670.522 213.035C672.771 207.16 673.895 200.644 673.895 193.489L682.664 193.263Z" fill="#303031"/>
<path d="M820.494 125.244V244.898C820.494 255.67 818.283 264.859 813.861 272.467C809.514 280.075 803.443 285.837 795.649 289.754C787.929 293.747 779.01 295.743 768.892 295.743C764.695 295.743 759.748 295.065 754.052 293.709C748.431 292.428 742.885 290.206 737.414 287.043C732.018 283.954 727.483 279.774 723.811 274.501L734.716 262.185C739.812 268.362 745.134 272.655 750.68 275.066C756.301 277.552 761.847 278.794 767.318 278.794C777.137 278.794 784.931 275.97 790.702 270.32C796.548 264.746 799.471 256.611 799.471 245.915V152.135L801.382 125.244H820.494ZM717.628 185.353C717.628 172.925 719.576 162.04 723.473 152.7C727.371 143.284 732.917 135.978 740.112 130.78C747.307 125.583 755.851 122.984 765.744 122.984C773.389 122.984 780.06 124.34 785.756 127.052C791.527 129.688 796.398 133.53 800.371 138.576C804.418 143.623 807.603 149.725 809.926 156.88C812.325 164.036 813.974 172.096 814.873 181.06V192.02C813.749 203.846 811.238 214.09 807.341 222.752C803.518 231.34 798.16 238.006 791.264 242.751C784.369 247.421 775.787 249.757 765.52 249.757C755.776 249.757 747.307 247.083 740.112 241.734C732.992 236.311 727.446 228.929 723.473 219.589C719.576 210.248 717.628 199.628 717.628 187.726V185.353ZM738.651 187.726C738.651 195.861 739.737 203.281 741.911 209.985C744.159 216.689 747.644 222.075 752.366 226.142C757.088 230.134 763.196 232.13 770.691 232.13C777.586 232.13 783.245 230.662 787.667 227.724C792.089 224.786 795.649 220.907 798.347 216.086C801.045 211.265 803.144 206.03 804.643 200.381V172.925C803.743 168.782 802.469 164.79 800.82 160.948C799.171 157.031 796.998 153.566 794.3 150.553C791.602 147.465 788.304 145.017 784.407 143.209C780.584 141.401 776.087 140.497 770.916 140.497C763.346 140.497 757.163 142.531 752.366 146.599C747.644 150.666 744.159 156.127 741.911 162.982C739.737 169.761 738.651 177.218 738.651 185.353V187.726Z" fill="#303031"/>
<path d="M846.464 185.127C846.464 173.301 848.712 162.718 853.209 153.378C857.706 144.037 864.077 136.656 872.321 131.232C880.565 125.733 890.346 122.984 901.663 122.984C913.13 122.984 923.024 125.733 931.343 131.232C939.662 136.656 946.033 144.037 950.455 153.378C954.952 162.718 957.2 173.301 957.2 185.127V187.726C957.2 199.477 954.952 210.06 950.455 219.476C946.033 228.816 939.662 236.198 931.343 241.621C923.098 247.045 913.28 249.757 901.888 249.757C890.496 249.757 880.64 247.045 872.321 241.621C864.077 236.198 857.706 228.816 853.209 219.476C848.712 210.06 846.464 199.477 846.464 187.726V185.127ZM867.487 187.726C867.487 195.786 868.761 203.243 871.309 210.098C873.857 216.952 877.642 222.451 882.664 226.594C887.76 230.737 894.168 232.808 901.888 232.808C909.533 232.808 915.866 230.737 920.888 226.594C925.984 222.451 929.806 216.952 932.355 210.098C934.903 203.243 936.177 195.786 936.177 187.726V185.127C936.177 177.068 934.903 169.61 932.355 162.756C929.806 155.901 925.984 150.402 920.888 146.26C915.791 142.041 909.383 139.932 901.663 139.932C894.093 139.932 887.76 142.041 882.664 146.26C877.567 150.402 873.745 155.901 871.197 162.756C868.723 169.61 867.487 177.068 867.487 185.127V187.726Z" fill="#303031"/>
<path d="M214.174 75.5C215.174 74.1667 218.34 72.9167 223.674 71.75C229.174 70.4167 234.341 69.75 239.174 69.75C244.007 69.75 248.007 70.4167 251.174 71.75L226.674 260H192.674L202.424 175.5L199.174 176.5C183.84 181 169.924 185.417 157.424 189.75L153.924 217.25C149.924 246.75 136.09 261.5 112.424 261.5C103.924 261.5 97.3405 259 92.6738 254C88.0072 248.833 85.6738 242.25 85.6738 234.25C85.6738 216.417 98.2572 200.333 123.424 186L136.174 77.5C139.34 75.3333 143.507 73.5 148.674 72C153.84 70.5 158.84 69.75 163.674 69.75C168.507 69.75 171.674 69.8333 173.174 70L160.174 169.5C170.34 165.833 183.174 161.917 198.674 157.75L204.674 156.25L214.174 75.5ZM103.174 230.5C103.174 235.833 105.59 238.5 110.424 238.5C113.09 238.5 114.84 237.75 115.674 236.25C116.507 234.583 117.09 233.25 117.424 232.25C117.924 231.083 118.34 229.583 118.674 227.75C119.007 225.917 119.257 224.333 119.424 223C119.59 221.5 119.757 219.583 119.924 217.25C120.09 214.917 120.257 213.083 120.424 211.75L120.924 208C109.09 216.167 103.174 223.667 103.174 230.5Z" fill="#4E5CA6"/>
</svg>
